<svg width="143" height="96" viewBox="0 0 143 96" fill="none" xmlns="http://www.w3.org/2000/svg">
<path fill-rule="evenodd" clip-rule="evenodd" d="M72 96C99.4509 96 122.667 82.9207 130.323 64.9302C130.71 64.9763 131.103 65 131.5 65C137.851 65 143 58.9558 143 51.5C143 44.0442 137.851 38 131.5 38C131.125 38 130.754 38.021 130.388 38.0623C130.227 38.0803 130.066 38.1025 129.907 38.1284C121.852 20.6248 98.97 8 72 8C44.9312 8 21.9803 20.7178 14.0052 38.3213C13.1987 38.1108 12.3605 38 11.5 38C5.14868 38 0 44.0442 0 51.5C0 58.9558 5.14868 65 11.5 65C12.2208 65 12.926 64.9221 13.6101 64.7732C21.1982 82.8445 44.4692 96 72 96Z" fill="#F1E46B"/>
<circle cx="43" cy="28" r="2" fill="black"/>
<circle cx="34" cy="32" r="2" fill="black"/>
<circle cx="43" cy="36" r="2" fill="black"/>
<circle cx="34" cy="40" r="2" fill="black"/>
<circle cx="27" cy="50" r="2" fill="black"/>
<circle cx="41" cy="46" r="2" fill="black"/>
<circle cx="54" cy="26" r="2" fill="black"/>
<path d="M130.325 17.2489C135.348 26.7752 128.805 40.095 128.805 40.095C128.805 40.095 114.119 37.9695 109.095 28.4432C104.072 18.9169 110.615 5.59719 110.615 5.59719C110.615 5.59719 125.302 7.72264 130.325 17.2489Z" fill="#289A4A"/>
<path d="M110.278 25.2979C120.892 27.1192 127.468 40.4229 127.468 40.4229C127.468 40.4229 116.834 50.7735 106.219 48.9522C95.6047 47.1308 89.0295 33.8272 89.0295 33.8272C89.0295 33.8272 99.6636 23.4765 110.278 25.2979Z" fill="#5AD880"/>
</svg>
