<svg width="953" height="177" viewBox="0 0 953 177" fill="none" xmlns="http://www.w3.org/2000/svg">
<path d="M949.201 102.564L949.219 102.538L949.236 102.511C950.144 101.084 950.779 99.5856 950.779 98.0977C950.779 96.8132 950.436 95.3095 949.136 94.4067C948.018 93.4269 946.596 93.3939 945.401 93.6734C943.967 93.9127 942.783 94.8064 941.825 95.9017L941.809 95.9199L941.794 95.9384C939.484 98.7103 936.524 102.019 932.907 105.869L932.896 105.881L932.885 105.893C929.428 109.696 925.621 113.389 921.46 116.971C917.446 120.412 913.326 123.387 909.103 125.899C905 128.225 901.183 129.32 897.627 129.32C895.945 129.32 894.258 129.113 892.563 128.696C891.083 128.193 889.757 127.454 888.573 126.474C887.4 125.39 886.385 123.982 885.55 122.207C884.862 120.745 884.401 118.908 884.22 116.652C885.738 115.565 887.464 114.393 889.4 113.134L889.429 113.115L889.457 113.095C891.794 111.46 894.248 109.765 896.82 108.012L896.83 108.005L896.84 107.998C899.208 106.34 901.689 104.509 904.282 102.506C907.065 100.447 909.666 98.148 912.083 95.6098C914.545 93.0243 916.637 90.1335 918.358 86.9427C920.255 83.6459 921.389 80.038 921.766 76.1419L921.768 76.1168L921.77 76.0917C922.039 72.3307 921.021 69.0268 918.629 66.3539C916.103 63.5311 912.211 62.3477 907.471 62.3477C902.346 62.3477 897.296 63.9539 892.348 67.0462L892.338 67.0523L892.329 67.0584C887.578 70.1041 883.268 73.9324 879.398 78.5281L879.388 78.5401L879.378 78.5522C875.641 83.1333 872.451 88.1908 869.807 93.7191L869.803 93.7277L869.799 93.7363C867.262 99.1734 865.721 104.432 865.226 109.503C864.622 115.55 865.029 120.837 866.555 125.289L866.564 125.313L866.572 125.337C868.17 129.637 870.291 133.227 872.977 136.041C875.605 138.794 878.528 140.843 881.749 142.135C884.969 143.495 888.043 144.219 890.947 144.219C896.192 144.219 901.51 142.969 906.884 140.527C912.307 138.117 917.535 134.989 922.569 131.153L922.575 131.149C927.706 127.211 932.535 122.799 937.063 117.914L937.071 117.905L937.079 117.897C941.589 112.911 945.631 107.801 949.201 102.564ZM893.444 83.8053L893.456 83.7883L893.468 83.771C895.258 81.1982 896.984 79.3321 898.628 78.0937C900.49 76.7835 901.765 76.3672 902.549 76.3672C903.183 76.3672 903.548 76.5716 903.873 77.0586L903.904 77.1048L903.937 77.1492C904.16 77.4467 904.474 78.3582 904.252 80.48C904.068 82.1165 903.161 84.3135 901.246 87.1293C899.434 89.7953 896.117 93.0395 891.136 96.8626L891.127 96.8695L891.118 96.8766C889.514 98.1371 887.91 99.3399 886.309 100.485C886.146 100.59 885.984 100.695 885.823 100.8C886.517 97.9766 887.373 95.4113 888.385 93.0985L888.389 93.0883L888.394 93.078C889.993 89.3092 891.681 86.2289 893.444 83.8053Z" stroke="black" stroke-width="4"/>
<path d="M821.57 122.707C821.453 125.637 821.98 127.746 823.152 129.035C824.324 130.324 825.613 130.969 827.019 130.969C828.66 130.969 830.652 130.148 832.996 128.508C835.457 126.867 838.035 124.816 840.73 122.355C843.425 119.895 846.121 117.199 848.816 114.27C851.511 111.34 853.972 108.586 856.199 106.008C858.542 103.312 860.476 100.969 862 98.9766C863.64 96.9844 864.753 95.6953 865.339 95.1094C866.042 94.4062 866.746 93.9961 867.449 93.8789C868.269 93.7617 868.914 93.8789 869.382 94.2305C869.851 94.582 870.085 95.2266 870.085 96.1641C870.085 97.1016 869.617 98.2734 868.679 99.6797M821.57 122.707L823.566 122.824C823.567 122.818 823.567 122.812 823.567 122.805M821.57 122.707L823.568 122.787C823.568 122.793 823.568 122.799 823.567 122.805M821.57 122.707C821.687 120.715 821.98 118.078 822.449 114.797C823.035 111.516 823.621 108.059 824.207 104.426L766.55 116.203M823.567 122.805C823.461 125.535 823.99 126.984 824.632 127.69C825.522 128.669 826.306 128.969 827.019 128.969C828.043 128.969 829.62 128.43 831.849 126.869L831.867 126.856L831.886 126.844C834.246 125.271 836.744 123.286 839.381 120.878C842.03 118.46 844.685 115.806 847.344 112.915C850.027 109.999 852.474 107.26 854.685 104.701L854.69 104.695C857.016 102.02 858.921 99.7099 860.411 97.7617L860.433 97.733L860.456 97.7051C862.084 95.7275 863.259 94.3614 863.925 93.6952C864.81 92.8104 865.872 92.1141 867.12 91.9061L867.143 91.9023L867.166 91.899C868.291 91.7382 869.54 91.8484 870.582 92.6305C871.797 93.5412 872.085 94.9781 872.085 96.1641C872.085 97.6955 871.354 99.2685 870.357 100.768M823.567 122.805C823.68 120.901 823.963 118.344 824.424 115.114C824.987 111.959 825.55 108.643 826.113 105.168C829.93 99.3539 833.462 93.2584 836.708 86.8821C840.133 80.2678 843.148 73.707 845.751 67.1998L845.756 67.1883C848.359 60.5613 850.436 54.1565 851.982 47.975C853.649 41.7812 854.614 36.0194 854.856 30.698C855.092 26.4435 855.098 22.9928 854.85 20.3885C854.612 17.8877 854.124 15.7508 853.227 14.2001C852.524 12.7014 851.432 11.3969 849.771 10.9349C848.602 10.5112 847.338 10.3164 846.003 10.3164C844.839 10.3164 843.653 10.5303 842.456 10.9222C841.41 11.1889 840.329 11.5756 839.215 12.0708C837.965 12.6263 836.706 13.4317 835.438 14.4461L834.952 14.8345L834.772 15.4298C832.892 21.657 831.188 27.5935 829.659 33.2389C828.135 38.8641 826.788 43.8449 825.616 48.1813L825.612 48.1944L825.609 48.2075C824.322 53.2391 823.093 57.9178 821.924 62.2438L821.917 62.2712L821.91 62.2989C821.203 65.2461 820.496 68.3675 819.79 71.663C819.559 72.7388 819.323 73.8211 819.079 74.9098C818.385 73.338 817.524 71.8794 816.497 70.539C815.183 68.7076 813.587 67.2348 811.709 66.1526C809.75 64.9048 807.571 64.2812 805.222 64.2812C800.243 64.2812 795.328 65.7528 790.502 68.5973C785.808 71.3163 781.583 75.0646 777.817 79.8024L777.813 79.8076C774.155 84.4403 771.132 89.8955 768.727 96.1492C766.304 102.447 764.915 109.1 764.553 116.098M870.357 100.768C870.362 100.761 870.366 100.754 870.37 100.748L868.679 99.6797M870.357 100.768C870.353 100.775 870.348 100.782 870.343 100.789L868.679 99.6797M870.357 100.768C868.921 103.041 867.081 105.71 864.845 108.77L864.834 108.785L864.822 108.8C862.571 111.763 860.086 114.839 857.37 118.027C854.643 121.229 851.74 124.369 848.662 127.447M868.679 99.6797C867.273 101.906 865.457 104.543 863.23 107.59C861.003 110.52 858.542 113.566 855.847 116.73C853.152 119.895 850.281 123 847.234 126.047M848.662 127.447C848.666 127.443 848.671 127.438 848.676 127.433L847.234 126.047M848.662 127.447C848.657 127.452 848.653 127.457 848.648 127.461L847.234 126.047M848.662 127.447C845.679 130.548 842.627 133.303 839.503 135.707M847.234 126.047C844.304 129.094 841.316 131.789 838.269 134.133M838.269 134.133L839.518 135.695C839.513 135.699 839.508 135.703 839.503 135.707M838.269 134.133C835.339 136.477 832.468 138.352 829.656 139.758M838.269 134.133L839.488 135.718C839.493 135.714 839.498 135.71 839.503 135.707M839.503 135.707C836.505 138.104 833.536 140.049 830.595 141.524M829.656 139.758L830.64 141.499C830.625 141.507 830.61 141.516 830.595 141.524M829.656 139.758C826.96 141.281 824.5 142.043 822.273 142.043C820.632 142.043 819.05 141.574 817.527 140.637C816.121 139.699 814.832 138.469 813.66 136.945C812.488 135.422 811.55 133.723 810.847 131.848C810.261 129.973 810.027 128.098 810.144 126.223C810.176 125.998 810.213 125.728 810.254 125.415C810.023 125.659 809.793 125.9 809.562 126.14C809.548 126.154 809.534 126.169 809.52 126.184C809.054 126.666 808.588 127.138 808.12 127.602M829.656 139.758L830.55 141.547C830.565 141.539 830.58 141.532 830.595 141.524M830.595 141.524C827.727 143.138 824.939 144.043 822.273 144.043C820.229 144.043 818.288 143.453 816.479 142.34L816.448 142.321L816.417 142.301C814.806 141.227 813.362 139.838 812.074 138.165C810.777 136.478 809.744 134.603 808.975 132.55L808.955 132.498L808.938 132.444C808.437 130.841 808.163 129.225 808.12 127.602M808.12 127.602C808.107 127.101 808.117 126.6 808.148 126.098L808.153 126.019L808.164 125.94C808.215 125.583 808.278 125.108 808.353 124.511C804.187 128.862 799.979 132.42 795.73 135.188C790.808 138.352 786.062 139.934 781.492 139.934C779.851 139.934 778.093 139.523 776.218 138.703C774.343 137.883 772.644 136.535 771.121 134.66C769.714 132.785 768.542 130.324 767.605 127.277C766.667 124.23 766.316 120.539 766.55 116.203M808.12 127.602C804.408 131.284 800.643 134.375 796.821 136.863L796.812 136.87C791.657 140.184 786.54 141.934 781.492 141.934C779.516 141.934 777.484 141.44 775.417 140.535C773.201 139.566 771.257 137.999 769.568 135.921L769.544 135.891L769.521 135.86C767.936 133.748 766.676 131.059 765.693 127.866C764.667 124.529 764.311 120.588 764.553 116.098M764.553 116.098C764.553 116.098 764.553 116.099 764.553 116.1L766.55 116.203M764.553 116.098C764.553 116.097 764.553 116.096 764.553 116.095L766.55 116.203M813.792 96.3184C813.806 96.3184 813.821 96.3183 813.836 96.3181C813.58 97.4318 813.338 98.5321 813.109 99.6192L813.098 99.669L813.09 99.7193C812.768 101.76 812.396 103.8 811.974 105.841C810.746 107.389 809.163 109.294 807.219 111.562L807.201 111.583L807.183 111.605C805.249 113.994 803.082 116.333 800.679 118.622L800.661 118.639L800.644 118.656C798.395 120.905 796.047 122.804 793.602 124.36L793.584 124.371L793.566 124.383C791.306 125.889 789.405 126.508 787.82 126.508C785.716 126.508 784.097 125.646 782.804 123.707C781.533 121.8 780.801 118.31 781.028 112.796C781.249 109.53 782.128 105.746 783.72 101.426C785.313 97.1018 787.301 93.0703 789.683 89.3277L789.69 89.3163L789.697 89.3049C792.087 85.4365 794.621 82.2359 797.29 79.6784L797.305 79.6636L797.32 79.6486C799.935 77.0337 802.21 76.0156 804.167 76.0156C805.396 76.0156 806.242 76.463 806.918 77.4392L806.939 77.4704L806.962 77.5008C807.826 78.653 808.484 80.0892 808.9 81.8565L808.917 81.9264L808.938 81.995C809.478 83.7238 809.799 85.4405 809.906 87.1482L809.906 87.1565C810.024 88.9162 810.078 90.0861 810.078 90.7148C810.078 92.2802 810.327 93.8039 811.117 94.9883L811.165 95.0605L811.219 95.1283C811.9 95.9798 812.861 96.3184 813.792 96.3184Z" stroke="black" stroke-width="4"/>
<path d="M673.931 134.776L673.968 134.828L674.008 134.877C675.861 137.127 678.328 138.987 681.337 140.492C684.518 142.083 688.487 142.812 693.13 142.812C697.935 142.812 702.342 141.606 706.304 139.178L706.324 139.166L706.343 139.153C709.252 137.277 711.856 134.857 714.162 131.92C715.206 134.482 716.395 136.642 717.752 138.36L717.788 138.406L717.827 138.45C720.13 141.041 723.222 142.285 726.88 142.285C730.941 142.285 735.089 140.661 739.283 137.7C743.399 134.795 747.427 131.183 751.372 126.882C755.423 122.591 759.174 117.946 762.625 112.949C766.172 107.865 769.143 103.055 771.531 98.5209C772.204 97.3022 772.624 95.9743 772.473 94.623C772.452 93.5035 772.16 92.1924 771.086 91.3144C769.966 90.2716 768.537 90.1928 767.288 90.5496L767.246 90.5615L767.205 90.5753C765.931 90.9998 764.867 92.0292 763.973 93.1784L763.963 93.1922L763.952 93.2062C763.581 93.7015 762.688 94.9515 761.298 96.9207C759.903 98.7809 758.215 100.992 756.235 103.554C754.262 106.108 752.053 108.84 749.607 111.753L749.601 111.759C747.294 114.527 744.933 117.119 742.517 119.535C740.241 121.811 738.041 123.728 735.918 125.295C733.844 126.709 732.323 127.211 731.275 127.211C730.668 127.211 730.118 127.111 729.61 126.92C729.299 126.673 728.922 126.247 728.515 125.538C728.14 124.56 727.775 123.118 727.447 121.148C727.134 119.271 726.863 116.769 726.64 113.621C727.101 112.984 727.597 112.311 728.129 111.602L728.162 111.558L728.193 111.512C728.968 110.348 729.72 108.963 730.454 107.373L730.465 107.348L730.476 107.323C731.209 105.614 731.931 103.625 732.645 101.366C733.485 98.9639 734.315 96.1125 735.139 92.8216C736.341 88.7227 737.07 84.7211 737.314 80.8201C737.549 77.061 737.669 74.1976 737.669 72.2578C737.669 71.2357 737.307 70.2764 736.556 69.5252C735.857 68.8259 734.949 68.4341 734.045 68.2082C733.416 68.0509 732.718 67.9833 731.986 67.9738C731.177 67.8427 730.278 67.8666 729.344 67.9789C726.965 68.1042 724.87 68.5265 723.374 69.4968C722.483 70.0147 721.738 70.86 721.103 71.7815C720.432 72.7543 719.766 73.9849 719.1 75.4367C718.374 76.8909 717.482 78.8551 716.429 81.3137L716.412 81.3513L716.398 81.3896C715.439 83.9079 714.485 86.7698 713.537 89.9709L713.53 89.9949L713.523 90.0191C712.688 93.1193 711.916 96.5065 711.206 100.179L711.201 100.204L711.196 100.23C710.591 103.86 710.29 107.603 710.29 111.457C710.29 113.286 710.43 115.074 710.712 116.822C708.582 120.009 706.282 122.617 703.822 124.67C701.305 126.658 698.807 127.562 696.294 127.562C691.925 127.562 689.726 126.317 688.719 124.535C687.504 122.385 686.99 118.91 687.559 113.787L687.561 113.776L687.562 113.765C687.78 111.583 688.392 108.601 689.434 104.779C690.359 101.427 691.694 97.0719 693.443 91.7051C695.306 86.3505 697.814 79.6442 700.969 71.5804L701.708 69.6912L699.809 68.9789C698.612 68.5301 697.314 68.3242 695.943 68.3242C694.814 68.3242 693.685 68.3869 692.558 68.5122L692.489 68.5199L692.421 68.5323C691.121 68.7685 689.879 69.0051 688.695 69.242L688.596 69.2618L688.499 69.2916C685.029 70.3593 682.247 72.3883 680.228 75.3499L680.222 75.3585L680.216 75.3672C678.462 77.9984 677.046 81.0856 675.949 84.6019C675.669 85.3253 675.184 86.8566 674.515 89.0855L674.502 89.13L674.491 89.1751C673.903 91.524 673.2 94.3981 672.379 97.7963C671.541 101.149 670.827 104.844 670.234 108.877C669.635 112.831 669.333 116.621 669.333 120.246C669.333 122.43 669.654 124.815 670.267 127.389L670.28 127.445L670.297 127.5C671.068 130.071 672.285 132.498 673.931 134.776Z" stroke="black" stroke-width="4"/>
<path d="M627.333 21.8605C630.253 21.5066 633.172 21.2891 636.091 21.208C635.497 23.454 634.784 26.1146 633.953 29.1904C632.777 33.4211 631.545 38.0593 630.254 43.1043C628.968 48.0147 627.565 53.2188 626.044 58.7168L626.04 58.731L626.036 58.7452C624.629 64.1401 623.28 69.4182 621.99 74.5795C620.703 79.6093 619.475 84.2864 618.306 88.611L618.3 88.6355L618.294 88.6601C617.239 92.9955 616.36 96.6293 615.656 99.561C613.323 109.128 610.876 117.866 608.316 125.778C605.763 133.554 603.049 140.186 600.182 145.689L600.178 145.697L600.174 145.704C597.318 151.302 594.231 155.533 590.95 158.486C587.754 161.363 584.35 162.719 580.686 162.719C579.262 162.719 577.877 162.392 576.511 161.713C575.326 161.069 574.15 160.022 573.01 158.475C572.018 156.975 571.167 154.946 570.507 152.319C569.975 149.738 569.8 146.54 570.027 142.688L570.027 142.686C570.363 136.862 571.814 131.647 574.355 127.008C576.971 122.23 579.901 118.299 583.13 115.181L583.143 115.169L583.155 115.156C586.443 111.869 589.526 109.639 592.397 108.363C593.894 107.697 595.032 107.354 595.852 107.243C596.693 107.129 596.939 107.293 596.942 107.295L599.055 108.774L599.961 106.358C600.769 104.204 601.045 101.97 600.785 99.6836C600.651 97.3965 600.139 95.294 599.211 93.4105C598.394 91.4039 597.159 89.7371 595.496 88.4683C593.879 87.0253 591.967 86.2539 589.827 86.2539C586.599 86.2539 582.949 87.9731 578.999 90.8434C574.923 93.6872 570.976 97.6546 567.142 102.686C563.27 107.769 559.908 113.784 557.041 120.712C554.133 127.739 552.507 135.351 552.146 143.53C551.9 148.341 552.574 152.695 554.237 156.538C555.855 160.393 558.054 163.674 560.848 166.341C563.604 168.972 566.745 170.985 570.258 172.37C573.767 173.869 577.365 174.629 581.038 174.629C587.358 174.629 593.163 173.075 598.408 169.953C603.526 166.907 608.086 163.013 612.088 158.286C616.059 153.711 619.483 148.603 622.362 142.967C625.319 137.407 627.811 132.011 629.833 126.779C631.96 121.461 633.625 116.647 634.82 112.344L634.824 112.33C635.997 107.992 636.824 104.801 637.301 102.774L637.303 102.765L637.306 102.755L655.567 21.4406C657.257 21.5486 658.879 21.6889 660.432 21.8613L660.441 21.8623L660.452 21.8637L660.463 21.865L660.474 21.8664L660.485 21.8678L660.496 21.8692L660.507 21.8705L660.518 21.8719L660.529 21.8733L660.54 21.8747L660.551 21.876L660.562 21.8774L660.572 21.8788L660.583 21.8802L660.594 21.8815L660.605 21.8829L660.616 21.8843L660.627 21.8856L660.638 21.887L660.649 21.8884L660.66 21.8898L660.671 21.8911L660.682 21.8925L660.693 21.8939L660.704 21.8953L660.715 21.8966L660.726 21.898L660.737 21.8994L660.748 21.9008L660.759 21.9021L660.77 21.9035L660.781 21.9049L660.792 21.9062L660.803 21.9076L660.814 21.909L660.825 21.9104L660.836 21.9117L660.847 21.9131L660.858 21.9145L660.869 21.9159L660.88 21.9172L660.891 21.9186L660.902 21.92L660.913 21.9214L660.924 21.9227L660.935 21.9241L660.946 21.9255L660.957 21.9268L660.968 21.9282L660.979 21.9296L660.99 21.931L661.001 21.9323L661.012 21.9337L661.023 21.9351L661.034 21.9365L661.045 21.9378L661.056 21.9392L661.067 21.9406L661.078 21.942L661.089 21.9433L661.1 21.9447L661.111 21.9461L661.122 21.9474L661.133 21.9488L661.144 21.9502L661.155 21.9516L661.166 21.9529L661.177 21.9543L661.188 21.9557L661.199 21.9571L661.21 21.9584L661.221 21.9598L661.232 21.9612L661.243 21.9626L661.254 21.9639L661.265 21.9653L661.276 21.9667L661.287 21.968L661.298 21.9694L661.309 21.9708L661.32 21.9722L661.331 21.9735L661.342 21.9749L661.353 21.9763L661.364 21.9777L661.374 21.979L661.385 21.9804L661.396 21.9818L661.407 21.9832L661.418 21.9845L661.429 21.9859L661.44 21.9873L661.451 21.9886L661.462 21.99L661.473 21.9914L661.484 21.9928L661.495 21.9941L661.506 21.9955L661.517 21.9969L661.528 21.9983L661.539 21.9996L661.55 22.001L661.561 22.0024L661.572 22.0038L661.583 22.0051L661.594 22.0065L661.605 22.0079L661.616 22.0092L661.627 22.0106L661.638 22.012L661.649 22.0134L661.66 22.0147L661.671 22.0161L661.682 22.0175L661.693 22.0189L661.704 22.0202L661.715 22.0216L661.726 22.023L661.737 22.0244L661.748 22.0257L661.759 22.0271L661.77 22.0285L661.781 22.0298L661.792 22.0312L661.803 22.0326L661.814 22.034L661.825 22.0353L661.836 22.0367L661.847 22.0381L661.858 22.0395L661.869 22.0408L661.88 22.0422L661.891 22.0436L661.902 22.045L661.913 22.0463L661.924 22.0477L661.935 22.0491L661.946 22.0504L661.957 22.0518L661.968 22.0532L661.979 22.0546L661.99 22.0559L662.001 22.0573L662.012 22.0587L662.023 22.0601L662.034 22.0614L662.045 22.0628L662.056 22.0642L662.067 22.0655L662.078 22.0669L662.089 22.0683L662.1 22.0697L662.111 22.071L662.122 22.0724L662.133 22.0738L662.144 22.0752L662.155 22.0765L662.166 22.0779L662.176 22.0793L662.187 22.0807L662.198 22.082L662.209 22.0834L662.22 22.0848L662.231 22.0861L662.242 22.0875L662.253 22.0889L662.264 22.0903L662.275 22.0916L662.286 22.093L662.297 22.0944L662.308 22.0958L662.319 22.0971L662.33 22.0985L662.341 22.0999L662.352 22.1013L662.363 22.1026L662.374 22.104L662.385 22.1054L662.396 22.1067L662.407 22.1081L662.418 22.1095L662.429 22.1109L662.44 22.1122L662.451 22.1136L662.462 22.115L662.473 22.1164L662.484 22.1177L662.495 22.1191L662.506 22.1205L662.517 22.1219L662.528 22.1232L662.539 22.1246L662.55 22.126L662.561 22.1273L662.572 22.1287L662.583 22.1301L662.594 22.1315L662.605 22.1328L662.616 22.1342L662.627 22.1356L662.638 22.137L662.649 22.1383L662.66 22.1397L662.671 22.1411L662.682 22.1425L662.693 22.1438L662.704 22.1452L662.715 22.1466L662.726 22.1479L662.737 22.1493L662.748 22.1507L662.759 22.1521L662.77 22.1534L662.781 22.1548L662.792 22.1562L662.803 22.1576L662.814 22.1589L662.825 22.1603L662.836 22.1617L662.847 22.1631L662.858 22.1644L662.869 22.1658L662.88 22.1672L662.891 22.1685L662.902 22.1699L662.913 22.1713L662.924 22.1727L662.935 22.174L662.946 22.1754L662.957 22.1768L662.968 22.1782L662.978 22.1795L662.989 22.1809L663 22.1823L663.011 22.1837L663.022 22.185L663.033 22.1864L663.044 22.1878L663.055 22.1891L663.066 22.1905L663.077 22.1919L663.088 22.1933L663.099 22.1946L663.11 22.196L663.121 22.1974L663.132 22.1988L663.143 22.2001L663.154 22.2015L663.165 22.2029L663.176 22.2043L663.187 22.2056L663.198 22.207L663.209 22.2084L663.22 22.2097L663.231 22.2111L663.242 22.2125L663.253 22.2139L663.264 22.2152L663.275 22.2166L663.286 22.218L663.297 22.2194L663.308 22.2207L663.319 22.2221L663.33 22.2235L663.341 22.2249L663.352 22.2262L663.363 22.2276L663.374 22.229L663.385 22.2303L663.396 22.2317L663.407 22.2331L663.418 22.2345L663.429 22.2358L663.44 22.2372L663.451 22.2386L663.462 22.24L663.473 22.2413L663.484 22.2427L663.495 22.2441L663.506 22.2455L663.517 22.2468L663.528 22.2482L663.539 22.2496L663.55 22.2509L663.561 22.2523L663.572 22.2537L663.583 22.2551L663.594 22.2564L663.605 22.2578L663.616 22.2592L663.627 22.2606L663.638 22.2619L663.649 22.2633L663.66 22.2647L663.671 22.2661L663.682 22.2674L663.693 22.2688L663.704 22.2702L663.715 22.2715L663.726 22.2729L663.737 22.2743L663.748 22.2757L663.759 22.277L663.77 22.2784L663.78 22.2798L663.791 22.2812L663.802 22.2825L663.813 22.2839L663.824 22.2853L663.835 22.2866L663.846 22.288L663.857 22.2894L663.868 22.2908L663.879 22.2921L663.89 22.2935L663.901 22.2949L663.912 22.2963L663.923 22.2976L663.934 22.299L663.945 22.3004L663.956 22.3018L663.967 22.3031L663.978 22.3045L663.989 22.3059L664 22.3072L664.011 22.3086L664.022 22.31L664.033 22.3114L664.044 22.3127L664.055 22.3141L664.066 22.3155L664.077 22.3169L664.088 22.3182L664.099 22.3196L664.11 22.321L664.121 22.3224L664.132 22.3237L664.143 22.3251L664.154 22.3265L664.165 22.3278L664.176 22.3292L664.187 22.3306L664.198 22.332L664.209 22.3333L664.22 22.3347L664.231 22.3361L664.242 22.3375L664.253 22.3388L664.264 22.3402L664.275 22.3416L664.286 22.343L664.297 22.3443L664.308 22.3457L664.319 22.3471L664.33 22.3484L664.341 22.3498L664.352 22.3512L664.363 22.3526L664.374 22.3539L664.385 22.3553L664.396 22.3567L664.407 22.3581L664.418 22.3594L664.429 22.3608L664.44 22.3622L664.451 22.3636L664.462 22.3649L664.473 22.3663L664.484 22.3677L664.495 22.369L664.506 22.3704L664.517 22.3718L664.528 22.3732L664.539 22.3745L664.55 22.3759L664.561 22.3773L664.572 22.3787L664.582 22.38L664.593 22.3814L664.604 22.3828L664.615 22.3842L664.626 22.3855L664.637 22.3869L664.648 22.3883L664.659 22.3896L664.67 22.391L664.681 22.3924L664.692 22.3938L664.703 22.3951L664.714 22.3965L664.725 22.3979L664.736 22.3993L664.747 22.4006L664.758 22.402L664.769 22.4034L664.78 22.4048L664.791 22.4061L664.802 22.4075L664.813 22.4089L664.824 22.4102L664.835 22.4116L664.846 22.413L664.857 22.4144L664.868 22.4157L664.879 22.4171L664.89 22.4185L664.901 22.4199L664.912 22.4212L664.923 22.4226L664.934 22.424L664.945 22.4254L664.956 22.4267L664.967 22.4281L664.978 22.4295L664.989 22.4308L665 22.4322L665.011 22.4336L665.022 22.435L665.033 22.4363L665.044 22.4377L665.055 22.4391L665.066 22.4405L665.077 22.4418L665.088 22.4432L665.099 22.4446L665.11 22.446L665.121 22.4473L665.132 22.4487L665.143 22.4501L665.154 22.4514L665.165 22.4528L665.176 22.4542L665.187 22.4556L665.198 22.4569L665.209 22.4583L665.22 22.4597L665.231 22.4611L665.242 22.4624L665.253 22.4638L665.264 22.4652L665.275 22.4666L665.286 22.4679L665.297 22.4693L665.308 22.4707L665.319 22.472L665.33 22.4734L665.341 22.4748L665.352 22.4762L665.363 22.4775L665.374 22.4789L665.384 22.4803L665.395 22.4817L665.406 22.483L665.417 22.4844L665.428 22.4858L665.439 22.4872L665.45 22.4885L665.461 22.4899L665.472 22.4913L665.483 22.4926L665.494 22.494L665.505 22.4954L665.516 22.4968L665.527 22.4981L665.538 22.4995L665.549 22.5009L665.56 22.5023L665.571 22.5036L665.582 22.505L665.593 22.5064L665.604 22.5077L665.615 22.5091L665.626 22.5105L665.637 22.5119L665.648 22.5132L665.659 22.5146L665.67 22.516L665.681 22.5174L665.692 22.5187L665.703 22.5201L665.714 22.5215L665.725 22.5229L665.736 22.5242L665.747 22.5256L665.758 22.527L665.769 22.5283L665.78 22.5297L665.791 22.5311L665.802 22.5325L665.813 22.5338L665.824 22.5352L665.835 22.5366L665.846 22.538L665.857 22.5393L665.868 22.5407L665.879 22.5421L665.89 22.5435L665.901 22.5448L665.912 22.5462L665.923 22.5476L665.934 22.5489L665.945 22.5503L665.956 22.5517L665.967 22.5531L665.978 22.5544L665.989 22.5558L666 22.5572L666.011 22.5586L666.022 22.5599L666.033 22.5613L666.044 22.5627L666.109 22.5708L666.174 22.5747C668.089 22.6873 669.58 22.9087 670.687 23.2108L671.487 23.4288L672.206 23.0177C673.254 22.419 674.134 21.6384 674.793 20.6609C675.429 19.7666 675.933 18.8613 676.248 17.9501C676.69 16.8907 676.905 15.7681 676.905 14.6016C676.905 13.8948 676.836 13.2095 676.676 12.5604C676.35 11.1174 675.624 9.85519 674.561 8.79282L674.175 8.40686L673.647 8.27048C669.936 7.31278 666.222 6.59371 662.505 6.1141C658.857 5.6434 655.55 5.28867 652.588 5.05119C649.134 4.6947 645.792 4.51562 642.561 4.51562C638.178 4.51562 633.908 4.69306 629.753 5.04866C626.192 5.28663 622.347 5.7011 618.221 6.29005C614.156 6.76951 610.525 7.49242 607.344 8.47125L606.36 8.77394L606.035 9.75036C605.643 10.9277 605.377 12.1155 605.243 13.3119C605.128 14.2345 605.013 15.0973 604.898 15.9008L604.895 15.9181L604.893 15.9355C604.755 17.0378 604.755 18.1419 604.893 19.2442L604.895 19.2616L604.898 19.2789C605.017 20.1122 605.136 20.8894 605.256 21.61L605.262 21.6419L605.268 21.6735L605.269 21.6769L605.269 21.6803L605.27 21.6838L605.271 21.6872L605.272 21.6906L605.272 21.6941L605.273 21.6975L605.274 21.7009L605.274 21.7044L605.275 21.7078L605.276 21.7112L605.276 21.7147L605.277 21.7181L605.278 21.7215L605.278 21.725L605.279 21.7284L605.28 21.7318L605.28 21.7353L605.281 21.7387L605.282 21.7421L605.283 21.7456L605.283 21.749L605.284 21.7524L605.285 21.7559L605.285 21.7593L605.286 21.7627L605.287 21.7662L605.287 21.7696L605.288 21.773L605.289 21.7765L605.289 21.7799L605.29 21.7833L605.291 21.7868L605.291 21.7902L605.292 21.7936L605.293 21.7971L605.293 21.8005L605.294 21.8039L605.295 21.8074L605.296 21.8108L605.296 21.8142L605.297 21.8177L605.298 21.8211L605.298 21.8245L605.299 21.828L605.3 21.8314L605.3 21.8348L605.301 21.8383L605.302 21.8417L605.302 21.8451L605.303 21.8486L605.304 21.852L605.304 21.8554L605.305 21.8589L605.306 21.8623L605.307 21.8657L605.307 21.8692L605.308 21.8726L605.309 21.876L605.309 21.8795L605.31 21.8829L605.311 21.8863L605.311 21.8898L605.312 21.8932L605.313 21.8966L605.313 21.9001L605.314 21.9035L605.315 21.9069L605.315 21.9104L605.316 21.9138L605.317 21.9172L605.318 21.9207L605.318 21.9241L605.319 21.9275L605.32 21.931L605.32 21.9344L605.321 21.9378L605.322 21.9413L605.322 21.9447L605.323 21.9481L605.324 21.9516L605.324 21.955L605.325 21.9584L605.326 21.9619L605.326 21.9653L605.327 21.9687L605.328 21.9722L605.329 21.9756L605.329 21.979L605.33 21.9825L605.331 21.9859L605.331 21.9893L605.332 21.9928L605.333 21.9962L605.333 21.9996L605.334 22.0031L605.335 22.0065L605.335 22.0099L605.336 22.0134L605.337 22.0168L605.337 22.0202L605.338 22.0237L605.339 22.0271L605.339 22.0305L605.34 22.034L605.341 22.0374L605.342 22.0408L605.342 22.0443L605.343 22.0477L605.344 22.0511L605.344 22.0546L605.345 22.058L605.346 22.0614L605.346 22.0649L605.347 22.0683L605.348 22.0717L605.348 22.0752L605.349 22.0786L605.35 22.082L605.35 22.0855L605.351 22.0889L605.352 22.0923L605.353 22.0958L605.353 22.0992L605.354 22.1026L605.355 22.1061L605.355 22.1095L605.356 22.1129L605.357 22.1164L605.357 22.1198L605.358 22.1232L605.359 22.1267L605.359 22.1301L605.36 22.1335L605.361 22.137L605.361 22.1404L605.362 22.1438L605.363 22.1473L605.364 22.1507L605.364 22.1541L605.365 22.1576L605.366 22.161L605.366 22.1644L605.367 22.1679L605.368 22.1713L605.368 22.1747L605.369 22.1782L605.37 22.1816L605.37 22.185L605.371 22.1885L605.372 22.1919L605.372 22.1953L605.373 22.1988L605.374 22.2022L605.375 22.2056L605.375 22.2091L605.376 22.2125L605.377 22.2159L605.377 22.2194L605.378 22.2228L605.379 22.2262L605.379 22.2297L605.38 22.2331L605.381 22.2365L605.381 22.24L605.382 22.2434L605.383 22.2468L605.383 22.2503L605.384 22.2537L605.385 22.2571L605.386 22.2606L605.386 22.264L605.387 22.2674L605.388 22.2709L605.388 22.2743L605.389 22.2777L605.39 22.2812L605.39 22.2846L605.391 22.288L605.392 22.2915L605.392 22.2949L605.393 22.2983L605.394 22.3018L605.394 22.3052L605.395 22.3086L605.396 22.3121L605.396 22.3155L605.397 22.3189L605.398 22.3224L605.399 22.3258L605.399 22.3292L605.4 22.3327L605.401 22.3361L605.401 22.3395L605.402 22.343L605.403 22.3464L605.403 22.3498L605.404 22.3533L605.405 22.3567L605.405 22.3601L605.406 22.3636L605.407 22.367L605.407 22.3704L605.408 22.3739L605.409 22.3773L605.41 22.3807L605.41 22.3842L605.411 22.3876L605.412 22.391L605.412 22.3945L605.413 22.3979L605.414 22.4013L605.414 22.4048L605.415 22.4082L605.416 22.4116L605.416 22.4151L605.417 22.4185L605.418 22.4219L605.418 22.4254L605.419 22.4288L605.42 22.4322L605.421 22.4357L605.421 22.4391L605.422 22.4425L605.423 22.446L605.423 22.4494L605.424 22.4528L605.425 22.4563L605.425 22.4597L605.426 22.4631L605.427 22.4666L605.427 22.47L605.428 22.4734L605.429 22.4769L605.429 22.4803L605.43 22.4837L605.431 22.4872L605.432 22.4906L605.432 22.494L605.433 22.4975L605.434 22.5009L605.434 22.5043L605.435 22.5078L605.436 22.5112L605.436 22.5146L605.437 22.5181L605.438 22.5215L605.438 22.5249L605.439 22.5284L605.44 22.5318L605.44 22.5352L605.441 22.5387L605.442 22.5421L605.442 22.5455L605.443 22.549L605.444 22.5524L605.445 22.5558L605.445 22.5593L605.446 22.5627L605.447 22.5661L605.447 22.5696L605.448 22.573L605.449 22.5764L605.449 22.5799L605.45 22.5833L605.451 22.5867L605.451 22.5902L605.452 22.5936L605.453 22.597L605.453 22.6005L605.454 22.6039L605.455 22.6073L605.456 22.6108L605.456 22.6142L605.457 22.6176L605.458 22.6211L605.458 22.6245L605.459 22.6279L605.46 22.6314L605.46 22.6348L605.461 22.6382L605.462 22.6417L605.462 22.6451L605.463 22.6485L605.464 22.652L605.464 22.6554L605.465 22.6588L605.466 22.6623L605.467 22.6657L605.467 22.6691L605.468 22.6726L605.469 22.676L605.469 22.6794L605.47 22.6829L605.471 22.6863L605.471 22.6897L605.472 22.6932L605.473 22.6966L605.473 22.7L605.474 22.7035L605.475 22.7069L605.475 22.7103L605.476 22.7138L605.477 22.7172L605.478 22.7206L605.478 22.7241L605.479 22.7275L605.48 22.7309L605.48 22.7344L605.481 22.7378L605.482 22.7412L605.482 22.7446L605.483 22.7481L605.484 22.7515L605.484 22.7549L605.485 22.7584L605.486 22.7618L605.486 22.7652L605.487 22.7687L605.488 22.7721L605.488 22.7755L605.489 22.779L605.49 22.7824L605.491 22.7858L605.491 22.7893L605.492 22.7927L605.493 22.7961L605.493 22.7996L605.494 22.803L605.495 22.8064L605.495 22.8099L605.496 22.8133L605.497 22.8167L605.497 22.8202L605.498 22.8236L605.499 22.827L605.499 22.8305L605.5 22.8339L605.501 22.8373L605.502 22.8408L605.502 22.8442L605.503 22.8476L605.504 22.8511L605.504 22.8545L605.505 22.8579L605.506 22.8614L605.506 22.8648L605.507 22.8682L605.508 22.8717L605.508 22.8751L605.509 22.8785L605.51 22.882L605.51 22.8854L605.511 22.8888L605.512 22.8923L605.513 22.8957L605.513 22.8991L605.514 22.9026L605.515 22.906L605.515 22.9094L605.516 22.9129L605.517 22.9163L605.517 22.9197L605.518 22.9232L605.519 22.9266L605.519 22.93L605.52 22.9335L605.521 22.9369L605.521 22.9403L605.522 22.9438L605.523 22.9472L605.524 22.9506L605.524 22.9541L605.525 22.9575L605.526 22.9609L605.526 22.9644L605.527 22.9678L605.528 22.9712L605.528 22.9747L605.529 22.9781L605.53 22.9815L605.53 22.985L605.531 22.9884L605.532 22.9918L605.532 22.9953L605.533 22.9987L605.534 23.0021L605.535 23.0056L605.535 23.009L605.536 23.0124L605.537 23.0159L605.537 23.0193L605.538 23.0227L605.539 23.0262L605.539 23.0296L605.54 23.033L605.541 23.0365L605.541 23.0399L605.542 23.0433L605.543 23.0468L605.543 23.0502L605.544 23.0536L605.545 23.0571L605.545 23.0605L605.546 23.0639L605.547 23.0674L605.548 23.0708L605.548 23.0742L605.549 23.0777L605.55 23.0811L605.55 23.0845L605.551 23.088L605.552 23.0914L605.552 23.0948L605.553 23.0983L605.554 23.1017L605.554 23.1051L605.555 23.1086L605.556 23.112L605.556 23.1154L605.557 23.1189L605.558 23.1223L605.559 23.1257L605.559 23.1292L605.56 23.1326L605.561 23.136L605.561 23.1395L605.562 23.1429L605.563 23.1463L605.563 23.1498L605.564 23.1532L605.565 23.1566L605.565 23.1601L605.566 23.1635L605.567 23.1669L605.567 23.1704L605.568 23.1738L605.569 23.1772L605.57 23.1807L605.57 23.1841L605.571 23.1875L605.572 23.191L605.572 23.1944L605.573 23.1978L605.574 23.2013L605.574 23.2047L605.575 23.2081L605.576 23.2116L605.576 23.215L605.577 23.2184L605.578 23.2219L605.578 23.2253L605.579 23.2287L605.58 23.2322L605.581 23.2356L605.581 23.239L605.582 23.2425L605.583 23.2459L605.583 23.2493L605.584 23.2528L605.585 23.2562L605.585 23.2596L605.586 23.2631L605.587 23.2665L605.587 23.2699L605.588 23.2734L605.589 23.2768L605.589 23.2802L605.59 23.2837L605.591 23.2871L605.591 23.2905L605.592 23.294L605.593 23.2974L605.594 23.3008L605.594 23.3043L605.595 23.3077L605.596 23.3111L605.596 23.3146L605.597 23.318L605.598 23.3214L605.598 23.3249L605.599 23.3283L605.6 23.3317L605.6 23.3352L605.601 23.3386L605.602 23.342L605.602 23.3455L605.603 23.3489L605.604 23.3523L605.605 23.3558L605.605 23.3592L605.606 23.3626L605.607 23.3661L605.607 23.3695L605.608 23.3729L605.609 23.3764L605.609 23.3798L605.61 23.3832L605.611 23.3867L605.611 23.3901L605.612 23.3935L605.613 23.397L605.613 23.4004L605.614 23.4038L605.615 23.4073L605.616 23.4107L605.616 23.4141L605.617 23.4176L605.618 23.421L605.618 23.4244L605.619 23.4279L605.62 23.4313L605.629 23.478L605.641 23.5241C605.789 24.1174 606.155 25.1772 607.214 25.7068L608.063 26.1315L608.929 25.7418C611.068 24.779 613.82 23.9975 617.226 23.4298L617.258 23.4245L617.289 23.4182C620.751 22.7259 624.089 22.2082 627.306 21.8636L627.319 21.8621L627.333 21.8605Z" stroke="black" stroke-width="4"/>
<path d="M480.329 104.161L480.286 104.2L480.244 104.242C479.816 104.67 479.031 105.401 477.859 106.455L477.82 106.49L477.783 106.527C476.777 107.534 475.47 108.728 473.853 110.114L473.825 110.138L473.798 110.163C472.332 111.516 470.57 112.996 468.505 114.603C467.112 115.608 465.639 116.615 464.084 117.624C462.388 110.665 460.58 102.39 458.661 92.7944C456.848 83.1621 455.642 73.1352 455.045 62.7125C455.161 62.577 455.275 62.4521 455.385 62.3372C455.895 61.9451 456.394 61.5032 456.881 61.0158L456.889 61.008L456.896 61.0002C462.179 55.6005 466.537 50.9483 469.966 47.0478C473.51 43.1486 476.325 39.6806 478.385 36.6512C480.54 33.5386 482.148 30.6547 483.161 28.0083C484.265 25.4241 485.066 22.773 485.56 20.057L485.564 20.0302L485.569 20.0033C486.066 16.7698 485.978 13.8881 485.126 11.475C484.327 9.21115 483.096 7.31858 481.39 5.88594C479.865 4.50874 478.07 3.55014 476.038 3.00574C474.262 2.49951 472.557 2.23047 470.936 2.23047C468.518 2.23047 465.705 2.82932 462.547 3.92253L462.535 3.92656L462.524 3.93073C459.328 5.08119 456.087 7.03093 452.801 9.70855C449.551 12.3339 446.603 15.7906 443.937 20.0299C441.195 24.2715 439.247 29.4948 438.04 35.6377C437.794 36.7486 437.609 37.8616 437.484 38.9763C437.367 39.9199 437.249 40.9207 437.131 41.9784L437.129 42.0021L437.127 42.026C436.892 44.7262 436.657 47.5433 436.422 50.4772L436.419 50.5153L436.418 50.5535C436.31 53.1431 436.251 55.8761 436.242 58.7521C435.863 59.1064 435.458 59.4634 435.026 59.8229C434.285 60.4407 433.598 61.0643 432.968 61.6941C423.436 70.9912 415.751 79.4403 409.933 87.0381L409.927 87.046L409.921 87.0539C404.183 94.7047 400.658 102.027 399.531 109.007C398.91 112.377 398.795 116.072 399.159 120.076L399.159 120.081C399.534 124.084 400.661 127.849 402.538 131.361C404.354 134.98 407.124 137.983 410.777 140.376L410.79 140.385L410.803 140.393C414.733 142.882 419.709 144.043 425.584 144.043C430.178 144.043 434.606 143.559 438.862 142.586C442.308 141.799 445.637 140.808 448.849 139.614C449.31 141.001 449.865 142.343 450.514 143.641L450.543 143.698L450.575 143.754C451.584 145.483 452.981 146.816 454.748 147.699C456.555 148.602 458.685 148.916 461.027 148.786C463.517 148.648 466.429 147.702 469.694 146.13L469.739 146.108L469.784 146.084C471.077 145.379 472.253 144.732 473.313 144.143L473.358 144.118L473.402 144.091C474.321 143.516 475.177 143.003 475.971 142.549C476.895 142.021 477.846 141.307 478.349 140.301L479.359 138.282L477.233 137.523C475.856 137.031 474.631 136.299 473.546 135.321C472.335 134.107 471.304 132.908 470.444 131.726L470.405 131.673L470.363 131.622C469.627 130.739 468.937 129.776 468.293 128.728C471.766 126.188 474.926 123.548 477.772 120.808L477.786 120.795L477.799 120.781L477.818 120.763L477.836 120.744L477.855 120.726L477.873 120.707L477.892 120.689L477.91 120.67L477.929 120.652L477.947 120.633L477.966 120.615L477.984 120.596L478.003 120.578L478.021 120.559L478.04 120.541L478.058 120.522L478.076 120.504L478.095 120.485L478.113 120.467L478.132 120.449L478.15 120.43L478.169 120.412L478.187 120.393L478.206 120.375L478.224 120.356L478.242 120.338L478.261 120.32L478.279 120.301L478.298 120.283L478.316 120.264L478.334 120.246L478.353 120.228L478.371 120.209L478.389 120.191L478.408 120.173L478.426 120.154L478.445 120.136L478.463 120.117L478.481 120.099L478.5 120.081L478.518 120.062L478.536 120.044L478.555 120.026L478.573 120.007L478.591 119.989L478.61 119.971L478.628 119.953L478.646 119.934L478.664 119.916L478.683 119.898L478.701 119.879L478.719 119.861L478.738 119.843L478.756 119.825L478.774 119.806L478.792 119.788L478.811 119.77L478.829 119.752L478.847 119.733L478.865 119.715L478.883 119.697L478.902 119.679L478.92 119.66L478.938 119.642L478.956 119.624L478.975 119.606L478.993 119.588L479.011 119.569L479.029 119.551L479.047 119.533L479.065 119.515L479.084 119.497L479.102 119.479L479.12 119.46L479.138 119.442L479.156 119.424L479.174 119.406L479.192 119.388L479.211 119.37L479.229 119.352L479.247 119.334L479.265 119.315L479.283 119.297L479.301 119.279L479.319 119.261L479.337 119.243L479.355 119.225L479.374 119.207L479.392 119.189L479.41 119.171L479.428 119.153L479.446 119.135L479.464 119.117L479.482 119.098L479.5 119.08L479.518 119.062L479.536 119.044L479.554 119.026L479.572 119.008L479.59 118.99L479.608 118.972L479.626 118.954L479.644 118.936L479.662 118.918L479.68 118.9L479.698 118.882L479.716 118.864L479.734 118.846L479.752 118.828L479.77 118.81L479.788 118.792L479.806 118.775L479.824 118.757L479.842 118.739L479.86 118.721L479.878 118.703L479.896 118.685L479.913 118.667L479.931 118.649L479.949 118.631L479.967 118.613L479.985 118.595L480.003 118.577L480.021 118.56L480.039 118.542L480.057 118.524L480.075 118.506L480.092 118.488L480.11 118.47L480.128 118.452L480.146 118.434L480.164 118.417L480.182 118.399L480.199 118.381L480.217 118.363L480.235 118.345L480.253 118.327L480.271 118.31L480.289 118.292L480.306 118.274L480.324 118.256L480.342 118.238L480.36 118.221L480.377 118.203L480.395 118.185L480.413 118.167L480.431 118.15L480.449 118.132L480.466 118.114L480.484 118.096L480.502 118.079L480.52 118.061L480.537 118.043L480.555 118.025L480.573 118.008L480.59 117.99L480.608 117.972L480.626 117.955L480.644 117.937L480.661 117.919L480.679 117.901L480.697 117.884L480.714 117.866L480.732 117.848L480.75 117.831L480.767 117.813L480.785 117.795L480.803 117.778L480.82 117.76L480.838 117.742L480.856 117.725L480.873 117.707L480.891 117.69L480.908 117.672L480.926 117.654L480.944 117.637L480.961 117.619L480.979 117.602L480.996 117.584L481.014 117.566L481.032 117.549L481.049 117.531L481.067 117.514L481.084 117.496L481.102 117.479L481.119 117.461L481.137 117.443L481.155 117.426L481.172 117.408L481.19 117.391L481.207 117.373L481.225 117.356L481.242 117.338L481.26 117.321L481.277 117.303L481.295 117.286L481.312 117.268L481.33 117.251L481.347 117.233L481.365 117.216L481.382 117.198L481.4 117.181L481.417 117.163L481.435 117.146L481.452 117.128L481.469 117.111L481.487 117.094L481.504 117.076L481.522 117.059L481.539 117.041L481.557 117.024L481.574 117.006L481.591 116.989L481.609 116.972L481.626 116.954L481.644 116.937L481.661 116.919L481.678 116.902L481.696 116.885L481.713 116.867L481.73 116.85L481.748 116.833L481.765 116.815L481.783 116.798L481.8 116.78L481.817 116.763L481.835 116.746L481.852 116.728L481.869 116.711L481.887 116.694L481.904 116.677L481.921 116.659L481.938 116.642L481.956 116.625L481.973 116.607L481.99 116.59L482.008 116.573L482.025 116.555L482.042 116.538L482.059 116.521L482.077 116.504L482.094 116.486L482.111 116.469L482.128 116.452L482.146 116.435L482.163 116.417L482.18 116.4L482.197 116.383L482.215 116.366L482.232 116.349L482.249 116.331L482.266 116.314L482.283 116.297L482.301 116.28L482.318 116.263L482.335 116.245L482.352 116.228L482.369 116.211L482.386 116.194L482.404 116.177L482.421 116.16L482.438 116.142L482.455 116.125L482.472 116.108L482.489 116.091L482.506 116.074L482.524 116.057L482.541 116.04L482.558 116.023L482.575 116.005L482.592 115.988L482.609 115.971L482.626 115.954L482.643 115.937L482.66 115.92L482.677 115.903L482.694 115.886L482.712 115.869L482.729 115.852L482.746 115.835L482.763 115.818L482.78 115.801L482.797 115.784L482.814 115.767L482.831 115.75L482.848 115.733L482.865 115.716L482.882 115.699L482.899 115.682L482.916 115.665L482.933 115.648L482.95 115.631L482.967 115.614L482.984 115.597L483.001 115.58L483.018 115.563L483.035 115.546L483.052 115.529L483.069 115.512L483.086 115.495L483.102 115.478L483.119 115.461L483.136 115.444L483.153 115.427L483.17 115.41L483.187 115.393L483.204 115.376L483.221 115.359L483.238 115.343L483.255 115.326L483.272 115.309L483.288 115.292L483.305 115.275L483.322 115.258L483.339 115.241L483.356 115.224L483.373 115.208L483.39 115.191L483.406 115.174L483.423 115.157L483.44 115.14L483.457 115.123L483.474 115.107L483.491 115.09L483.507 115.073L483.524 115.056L483.541 115.039L483.558 115.023L483.575 115.006L483.591 114.989L483.608 114.972L483.625 114.955L483.642 114.939L483.658 114.922L483.675 114.905L483.692 114.888L483.709 114.872L483.725 114.855L483.742 114.838L483.759 114.822L483.776 114.805L483.792 114.788L483.809 114.771L483.826 114.755L483.842 114.738L483.859 114.721L483.876 114.705L483.893 114.688L483.909 114.671L483.926 114.655L483.943 114.638L483.959 114.621L483.976 114.605L483.993 114.588L484.009 114.571L484.026 114.555L484.042 114.538L484.059 114.521L484.076 114.505L484.092 114.488L484.109 114.471L484.126 114.455L484.142 114.438L484.159 114.422L484.175 114.405L484.192 114.388L484.209 114.372L484.225 114.355L484.242 114.339L484.258 114.322L484.275 114.306L484.291 114.289L484.308 114.272L484.324 114.256L484.341 114.239L484.358 114.223L484.374 114.206L484.391 114.19L484.407 114.173L484.424 114.157L484.44 114.14L484.457 114.124L484.473 114.107L484.49 114.091L484.506 114.074L484.523 114.058L484.539 114.041L484.556 114.025L484.572 114.008L484.588 113.992L484.605 113.975L484.621 113.959L484.638 113.943L484.654 113.926L484.671 113.91L484.687 113.893L484.704 113.877L484.72 113.86L484.736 113.844L484.753 113.828L484.769 113.811L484.786 113.795L484.802 113.778L484.818 113.762L484.835 113.746L484.851 113.729L484.868 113.713L484.884 113.697L484.9 113.68L484.917 113.664L484.933 113.647L484.949 113.631L484.966 113.615L484.982 113.598L484.998 113.582L485.015 113.566L485.031 113.549L485.047 113.533L485.064 113.517L485.08 113.501L485.096 113.484L485.112 113.468L485.129 113.452L485.145 113.435L485.161 113.419L485.177 113.403L485.194 113.387L485.21 113.37L485.226 113.354L485.243 113.338L485.259 113.322L485.275 113.305L485.291 113.289L485.307 113.273L485.324 113.257L485.34 113.241L485.356 113.224L485.372 113.208L485.388 113.192L485.405 113.176L485.421 113.16L485.437 113.143L485.453 113.127L485.469 113.111L485.486 113.095L485.502 113.079L485.518 113.062L485.534 113.046L485.55 113.03L485.566 113.014L485.582 112.998L485.599 112.982L485.615 112.966L485.631 112.95L485.647 112.933L485.663 112.917L485.679 112.901L485.695 112.885L485.711 112.869L485.727 112.853L485.743 112.837L485.76 112.821L485.776 112.805L485.792 112.789L485.808 112.773L485.824 112.757L485.84 112.741L485.856 112.724L485.872 112.708L485.888 112.692L485.904 112.676L485.92 112.66L485.936 112.644L485.952 112.628L485.968 112.612L485.984 112.596L486 112.58L486.016 112.564L486.032 112.548L486.048 112.532L486.064 112.516L486.08 112.5L486.096 112.484L486.112 112.469L486.128 112.453L486.144 112.437L486.16 112.421L486.176 112.405L486.192 112.389L486.207 112.373L486.223 112.357L486.239 112.341L486.255 112.325L486.271 112.309L486.287 112.293L486.303 112.277L486.319 112.262L486.335 112.246L486.351 112.23L486.366 112.214L486.382 112.198L486.398 112.182L486.414 112.166L486.43 112.151L486.446 112.135L486.462 112.119L486.477 112.103L486.493 112.087L486.509 112.071L486.525 112.056L486.541 112.04L486.556 112.024L486.572 112.008L486.588 111.992L486.619 111.962L486.648 111.93C487.953 110.506 489.023 108.972 489.254 107.41C489.535 106.061 489.419 104.478 488.177 103.361C487.166 102.225 485.756 101.92 484.398 102.09C482.906 102.276 481.546 103.08 480.329 104.161ZM441.915 115.416L441.92 115.437L441.925 115.458C442.983 119.69 443.965 123.382 444.871 126.532C443.249 126.913 441.627 127.267 440.005 127.592C437.782 127.923 435.437 128.09 432.967 128.09C429.307 128.09 426.561 127.536 424.598 126.57C422.62 125.416 421.193 124.107 420.233 122.676C419.213 121.037 418.627 119.393 418.43 117.734C418.212 115.763 418.218 114.074 418.419 112.646C419.063 108.929 421.114 104.235 424.765 98.5144C427.815 93.7349 431.925 88.3261 437.112 82.284C437.233 84.0112 437.354 85.754 437.475 87.5126L437.478 87.5468L437.481 87.5808C437.835 91.0019 438.248 94.4228 438.72 97.8436L438.721 97.8509L438.722 97.8582C439.665 104.344 440.729 110.198 441.915 115.416ZM471.337 15.45L471.367 15.5342L471.405 15.6155C471.944 16.7847 472.12 17.9688 471.948 19.2124C471.45 22.0446 469.47 25.5556 465.596 29.7717C462.53 33.1076 458.969 36.7997 454.911 40.849C455.194 36.4478 455.627 32.2023 456.21 28.1121C456.524 26.4604 457.096 24.8502 457.935 23.2771L457.947 23.2539L457.959 23.2304C458.821 21.5066 459.831 20.0242 460.982 18.7683C462.241 17.4039 463.646 16.3147 465.197 15.4874C466.684 14.6944 468.179 14.3164 469.705 14.3164C470.269 14.3164 470.576 14.4445 470.755 14.5701C470.933 14.6947 471.153 14.9337 471.337 15.45Z" stroke="black" stroke-width="4"/>
<path d="M348.599 102.564L348.617 102.538L348.634 102.511C349.542 101.084 350.177 99.5856 350.177 98.0977C350.177 96.8132 349.833 95.3095 348.534 94.4067C347.415 93.4269 345.994 93.3939 344.799 93.6734C343.365 93.9127 342.181 94.8064 341.223 95.9017L341.207 95.9199L341.191 95.9384C338.881 98.7103 335.922 102.019 332.305 105.869L332.294 105.881L332.283 105.893C328.826 109.696 325.018 113.389 320.858 116.971C316.844 120.412 312.724 123.387 308.5 125.899C304.397 128.225 300.581 129.32 297.025 129.32C295.343 129.32 293.656 129.113 291.96 128.696C290.48 128.193 289.154 127.454 287.97 126.474C286.798 125.39 285.783 123.982 284.948 122.207C284.259 120.745 283.799 118.908 283.617 116.652C285.136 115.565 286.862 114.393 288.798 113.134L288.827 113.115L288.855 113.095C291.192 111.46 293.646 109.765 296.218 108.012L296.228 108.005L296.238 107.998C298.606 106.34 301.086 104.509 303.68 102.506C306.463 100.447 309.063 98.148 311.481 95.6098C313.943 93.0243 316.035 90.1335 317.756 86.9427C319.653 83.6459 320.787 80.038 321.164 76.1419L321.166 76.1168L321.168 76.0917C321.437 72.3307 320.418 69.0268 318.027 66.3539C315.501 63.5311 311.609 62.3477 306.868 62.3477C301.743 62.3477 296.693 63.9539 291.746 67.0462L291.736 67.0523L291.727 67.0584C286.975 70.1041 282.666 73.9324 278.796 78.5281L278.786 78.5401L278.776 78.5522C275.038 83.1333 271.849 88.1908 269.205 93.7191L269.201 93.7277L269.197 93.7363C266.659 99.1734 265.119 104.432 264.624 109.503C264.02 115.55 264.427 120.837 265.953 125.289L265.961 125.313L265.97 125.337C267.567 129.637 269.689 133.227 272.375 136.041C275.003 138.794 277.925 140.843 281.146 142.135C284.366 143.495 287.44 144.219 290.345 144.219C295.59 144.219 300.908 142.969 306.282 140.527C311.705 138.117 316.933 134.989 321.967 131.153L321.973 131.149C327.104 127.211 331.933 122.799 336.46 117.914L336.468 117.905L336.476 117.897C340.987 112.911 345.029 107.801 348.599 102.564ZM292.841 83.8053L292.854 83.7883L292.866 83.771C294.655 81.1982 296.382 79.3321 298.026 78.0937C299.888 76.7835 301.162 76.3672 301.946 76.3672C302.581 76.3672 302.946 76.5716 303.271 77.0586L303.301 77.1048L303.335 77.1492C303.558 77.4467 303.872 78.3582 303.65 80.48C303.466 82.1165 302.559 84.3135 300.644 87.1293C298.831 89.7953 295.515 93.0395 290.534 96.8626L290.524 96.8695L290.516 96.8766C288.911 98.1371 287.308 99.3399 285.706 100.485C285.543 100.59 285.381 100.695 285.221 100.8C285.915 97.9766 286.771 95.4113 287.783 93.0985L287.787 93.0883L287.792 93.078C289.39 89.3092 291.079 86.2289 292.841 83.8053Z" stroke="black" stroke-width="4"/>
<path d="M239.575 43.0353L239.597 43.0218L239.619 43.0076C241.087 42.0734 242.364 40.9332 243.44 39.5902C244.621 38.1457 245.475 36.6213 245.918 35.0155C246.343 33.5854 246.468 32.017 246.346 30.3449C246.339 28.6592 246.076 27.0878 245.512 25.6656C244.95 24.1331 244.076 22.8343 242.843 21.8744C241.508 20.6055 239.803 20.2184 238.012 20.544C236.251 20.8642 234.426 21.9147 232.583 23.385C230.615 24.8354 228.986 26.6683 227.695 28.8577C226.313 31.0779 225.688 33.5282 225.826 36.152L225.826 36.1578C225.988 39.0665 227.755 41.5277 230.436 43.5823C231.803 44.7273 233.49 45.0075 235.212 44.6943C236.748 44.415 238.205 43.857 239.575 43.0353ZM218.201 70.6259L218.188 70.6412L218.175 70.6569C216.077 73.2797 214.287 77.1226 212.733 82.0244L212.726 82.0457L212.72 82.0671C211.291 86.949 210.103 92.119 209.154 97.5755C208.205 102.915 207.551 108.2 207.195 113.429C206.842 118.486 206.831 122.593 207.197 125.699C207.342 127.995 208.024 130.201 209.205 132.301L209.219 132.325L209.233 132.349C210.387 134.272 211.797 136.002 213.459 137.536L213.517 137.59L213.58 137.639C215.366 139.043 217.293 140.139 219.357 140.916C221.592 141.832 223.87 142.24 226.172 142.107C229.265 141.955 232.835 140.109 236.754 137.142C240.828 134.145 244.943 130.564 249.1 126.406L249.11 126.396L249.12 126.386C253.261 122.127 257.167 117.748 260.838 113.249L260.846 113.239L260.853 113.229C264.517 108.62 267.337 104.609 269.282 101.207C270.186 99.6546 270.75 98.023 270.603 96.407C270.578 94.9365 270.044 93.5267 268.729 92.6137C267.401 91.6001 265.799 91.7097 264.456 92.1573L264.421 92.169L264.386 92.182C262.984 92.7081 261.773 93.7675 260.714 95.0905L260.668 95.1488L260.626 95.2105C259.16 97.3517 256.871 100.276 253.726 104.003C250.605 107.586 247.191 111.173 243.483 114.766C239.913 118.22 236.358 121.2 232.818 123.713L232.805 123.722L232.793 123.731C229.365 126.244 226.871 127.211 225.186 127.211C224.807 127.211 224.458 127.118 224.106 126.904C223.768 126.589 223.31 125.941 222.814 124.75L222.787 124.687L222.756 124.625C222.423 123.959 222.21 122.716 222.429 120.631C222.653 118.51 223.044 116.262 223.609 113.885C224.302 111.345 225.053 108.804 225.862 106.263L225.865 106.251L225.869 106.239C226.693 103.532 227.401 101.113 227.992 98.9845C228.56 96.9402 229.421 94.295 230.585 91.036L230.589 91.0256L230.593 91.0153C231.767 87.6108 232.882 84.323 233.939 81.152C234.998 77.9751 235.884 75.2011 236.594 72.8325C236.949 71.651 237.211 70.7131 237.371 70.0404C237.449 69.7121 237.516 69.3942 237.552 69.1217C237.568 68.9934 237.589 68.8003 237.581 68.5885C237.577 68.4836 237.564 68.3081 237.512 68.1033C237.466 67.9279 237.341 67.5212 236.972 67.1522L236.742 66.9227L236.452 66.7776C236.049 66.5759 235.639 66.5293 235.47 66.5115C235.234 66.4866 234.978 66.4785 234.722 66.4785C234.224 66.4785 233.591 66.51 232.842 66.5666C231.314 66.5729 229.645 66.7635 227.846 67.1199C226.018 67.3666 224.245 67.7347 222.527 68.2254C220.787 68.7228 219.184 69.4458 218.201 70.6259Z" stroke="black" stroke-width="4"/>
<path d="M154.578 119.644L154.588 119.626C155.169 118.58 155.705 117.52 156.195 116.445L154.578 119.644ZM154.578 119.644L154.569 119.662M154.578 119.644L154.569 119.662M154.569 119.662C153.586 121.517 152.446 123.201 151.151 124.717C149.89 126.078 148.479 127.228 146.914 128.172C145.474 128.931 143.881 129.32 142.098 129.32C140.591 129.32 139.554 128.956 138.82 128.386C137.89 127.537 137.129 126.495 136.543 125.234C135.931 123.798 135.51 122.182 135.296 120.37M154.569 119.662L135.296 120.37M135.296 120.37C135.07 118.336 134.958 116.302 134.958 114.27L135.296 120.37ZM177.839 97.0618C177.839 97.0573 177.84 97.0528 177.84 97.0483L177.841 97.0408L177.841 97.0333C177.961 95.5963 178.024 94.3646 178.024 93.3516C178.024 88.5738 177.23 84.3962 175.547 80.8953C173.941 77.4402 171.937 74.5364 169.509 72.2309C167.266 69.9917 164.856 68.2676 162.273 67.1023C160.057 66.0543 158.024 65.3742 156.221 65.1893L156.219 65.1886L156.217 65.1879L156.215 65.1873L156.213 65.1866L156.211 65.1859L156.209 65.1852L156.207 65.1845L156.205 65.1838L156.203 65.1831L156.201 65.1825L156.198 65.1818L156.196 65.1811L156.194 65.1804L156.192 65.1797L156.19 65.179L156.188 65.1783L156.186 65.1776L156.184 65.177L156.182 65.1763L156.18 65.1756L156.178 65.1749L156.176 65.1742L156.174 65.1735L156.172 65.1728L156.17 65.1722L156.168 65.1715L156.166 65.1708L156.163 65.1701L156.161 65.1694L156.159 65.1687L156.157 65.168L156.155 65.1673L156.153 65.1667L156.151 65.166L156.149 65.1653L156.147 65.1646L156.145 65.1639L156.143 65.1632L156.141 65.1625L156.139 65.1619L156.137 65.1612L156.135 65.1605L156.133 65.1598L156.13 65.1591L156.128 65.1584L156.126 65.1577L156.124 65.157L156.122 65.1564L156.12 65.1557L156.118 65.155L156.116 65.1543L156.114 65.1536L156.112 65.1529L156.11 65.1522L156.108 65.1516L156.106 65.1509L156.104 65.1502L156.102 65.1495L156.1 65.1488L156.098 65.1481L156.095 65.1474L156.093 65.1467L156.091 65.1461L156.089 65.1454L156.087 65.1447L156.085 65.144L156.083 65.1433L156.081 65.1426L156.079 65.1419L156.077 65.1413L156.075 65.1406L156.073 65.1399L156.071 65.1392L156.069 65.1385L156.067 65.1378L156.065 65.1371L156.063 65.1364L156.06 65.1358L156.058 65.1351L156.056 65.1344L156.054 65.1337L156.052 65.133L156.05 65.1323L156.048 65.1316L156.046 65.131L156.044 65.1303L156.042 65.1296L156.04 65.1289L156.038 65.1282L156.036 65.1275L156.034 65.1268L156.032 65.1261L156.03 65.1255L156.027 65.1248L156.025 65.1241L156.023 65.1234L156.021 65.1227L156.019 65.122L156.017 65.1213L156.015 65.1207L156.013 65.12L156.011 65.1193L156.009 65.1186L156.007 65.1179L156.005 65.1172L156.003 65.1165L156.001 65.1158L155.999 65.1152L155.997 65.1145L155.995 65.1138L155.992 65.1131L155.99 65.1124L155.988 65.1117L155.986 65.111L155.984 65.1104L155.982 65.1097L155.98 65.109L155.978 65.1083L155.976 65.1076L155.974 65.1069L155.972 65.1062L155.97 65.1055L155.968 65.1049L155.966 65.1042L155.964 65.1035L155.962 65.1028L155.96 65.1021L155.957 65.1014L155.955 65.1007L155.953 65.1001L155.951 65.0994L155.949 65.0987L155.947 65.098L155.945 65.0973L155.943 65.0966L155.941 65.0959L155.939 65.0952L155.937 65.0946L155.935 65.0939L155.933 65.0932L155.931 65.0925L155.929 65.0918L155.927 65.0911L155.924 65.0904L155.922 65.0898L155.92 65.0891L155.918 65.0884L155.916 65.0877L155.914 65.087L155.912 65.0863L155.91 65.0856L155.908 65.0849L155.906 65.0843L155.904 65.0836L155.902 65.0829L155.9 65.0822L155.898 65.0815L155.896 65.0808L155.894 65.0801L155.892 65.0795L155.889 65.0788L155.887 65.0781L155.885 65.0774L155.883 65.0767L155.881 65.076L155.879 65.0753L155.877 65.0746L155.875 65.074L155.873 65.0733L155.871 65.0726L155.869 65.0719L155.867 65.0712L155.865 65.0705L155.863 65.0698L155.861 65.0692L155.859 65.0685L155.857 65.0678L155.854 65.0671L155.852 65.0664L155.85 65.0657L155.848 65.065L155.846 65.0643L155.844 65.0637L155.842 65.063L155.84 65.0623L155.838 65.0616L155.836 65.0609L155.834 65.0602L155.832 65.0595L155.83 65.0589L155.828 65.0582L155.826 65.0575L155.824 65.0568L155.821 65.0561L155.819 65.0554L155.817 65.0547L155.815 65.054L155.813 65.0534L155.811 65.0527L155.809 65.052L155.807 65.0513L155.805 65.0506L155.803 65.0499L155.801 65.0492L155.799 65.0486L155.797 65.0479L155.795 65.0472L155.793 65.0465L155.791 65.0458L155.789 65.0451L155.786 65.0444L155.784 65.0437L155.782 65.0431L155.78 65.0424L155.778 65.0417L155.776 65.041L155.774 65.0403L155.772 65.0396L155.77 65.0389L155.768 65.0383L155.766 65.0376L155.764 65.0369L155.762 65.0362L155.76 65.0355L155.758 65.0348L155.756 65.0341L155.754 65.0335L155.751 65.0328L155.749 65.0321L155.747 65.0314L155.745 65.0307L155.743 65.03L155.741 65.0293L155.739 65.0286L155.737 65.028L155.735 65.0273L155.733 65.0266L155.731 65.0259L155.729 65.0252L155.727 65.0245L155.725 65.0238L155.723 65.0232L155.721 65.0225L155.718 65.0218L155.716 65.0211L155.714 65.0204L155.712 65.0197L155.71 65.019L155.708 65.0183L155.706 65.0177L155.704 65.017L155.702 65.0163L155.7 65.0156L155.698 65.0149L155.696 65.0142L155.694 65.0135L155.692 65.0129L155.69 65.0122L155.688 65.0115L155.686 65.0108L155.683 65.0101L155.681 65.0094L155.679 65.0087L155.677 65.008L155.675 65.0074L155.673 65.0067L155.671 65.006L155.669 65.0053L155.667 65.0046L155.665 65.0039L155.663 65.0032L155.661 65.0026L155.659 65.0019L155.657 65.0012L155.655 65.0005L155.653 64.9998L155.651 64.9991L155.648 64.9984L155.646 64.9977L155.644 64.9971L155.642 64.9964L155.64 64.9957L155.638 64.995L155.636 64.9943L155.634 64.9936L155.632 64.9929L155.63 64.9923L155.628 64.9916L155.626 64.9909L155.624 64.9902L155.622 64.9895L155.62 64.9888L155.618 64.9881L155.616 64.9874L155.613 64.9868L155.611 64.9861L155.609 64.9854L155.607 64.9847L155.605 64.984L155.603 64.9833L155.601 64.9826L155.599 64.982L155.597 64.9813L155.595 64.9806L155.593 64.9799L155.591 64.9792L155.589 64.9785L155.587 64.9778L155.585 64.9771L155.583 64.9765L155.58 64.9758L155.578 64.9751L155.576 64.9744L155.574 64.9737L155.572 64.973L155.57 64.9723L155.568 64.9717L155.566 64.971L155.564 64.9703L155.562 64.9696L155.56 64.9689L155.558 64.9682L155.556 64.9675L155.554 64.9668L155.552 64.9662L155.55 64.9655L155.548 64.9648L155.545 64.9641L155.543 64.9634L155.541 64.9627L155.539 64.962L155.537 64.9614L155.535 64.9607L155.533 64.96L155.531 64.9593L155.529 64.9586L155.527 64.9579L155.525 64.9572L155.523 64.9565L155.521 64.9559L155.519 64.9552L155.517 64.9545L155.515 64.9538L155.513 64.9531L155.51 64.9524L155.508 64.9517L155.506 64.9511L155.504 64.9504L155.502 64.9497L155.5 64.949L155.498 64.9483L155.496 64.9476L155.494 64.9469L155.492 64.9462L155.491 64.9461C154.949 64.7091 154.387 64.6328 153.875 64.6328C151.595 64.6328 149.272 64.9476 146.911 65.565C144.529 66.071 142.266 66.889 140.128 68.0185C138.064 69.0535 136.197 70.4085 134.532 72.0741L134.503 72.1023L134.476 72.1317C132.966 73.7676 131.815 75.6432 131.024 77.7434C129.035 80.1224 127.277 82.7237 125.75 85.5435L125.734 85.5723L125.719 85.6017C124.273 88.4937 123.064 91.3936 122.095 94.3011C121.134 97.1863 120.407 100.023 119.92 102.811C119.316 105.599 119.004 108.191 119.004 110.578C119.004 113.806 119.183 117.259 119.538 120.934C119.788 124.757 120.594 128.308 121.975 131.572L121.987 131.602L122.001 131.631C123.547 134.981 125.812 137.764 128.775 139.956C132.04 142.402 136.317 143.516 141.395 143.516C145.756 143.516 149.795 142.644 153.478 140.874C157.22 139.246 160.527 136.934 163.391 133.95C166.356 130.981 168.872 127.474 170.946 123.447C172.853 119.745 174.393 115.793 175.568 111.594C178.937 110.379 182.423 108.671 186.025 106.488C189.943 104.113 193.573 101.674 196.911 99.1703C200.219 96.6898 203.074 94.3721 205.469 92.2177C207.883 90.1482 209.542 88.6327 210.256 87.7765L210.261 87.7695L210.267 87.7626C211.423 86.3502 212.276 84.8954 212.605 83.4143C212.889 82.1385 212.924 80.7112 212.192 79.4905C211.811 78.8557 211.25 78.3406 210.517 78.0473C209.812 77.7655 209.088 77.7434 208.436 77.8365C207.004 78.0412 205.634 78.9704 204.393 80.0876L204.354 80.1228L204.317 80.16C203.001 81.4761 201.206 82.9954 198.906 84.7203C196.616 86.438 194.088 88.162 191.322 89.8915C188.669 91.5056 185.899 93.0636 183.011 94.5654C181.239 95.4872 179.515 96.3191 177.839 97.0618ZM161.262 98.9777L161.244 99.0441L161.231 99.1117C161.067 99.9295 160.874 100.839 160.65 101.84L160.647 101.84L160.644 101.841L160.64 101.842L160.637 101.843L160.633 101.843L160.63 101.844L160.626 101.845L160.623 101.845L160.62 101.846L160.616 101.847L160.613 101.847L160.609 101.848L160.606 101.849L160.602 101.849L160.599 101.85L160.596 101.851L160.592 101.851L160.589 101.852L160.585 101.853L160.582 101.854L160.578 101.854L160.575 101.855L160.571 101.856L160.568 101.856L160.565 101.857L160.561 101.858L160.558 101.858L160.554 101.859L160.551 101.86L160.547 101.86L160.544 101.861L160.541 101.862L160.537 101.862L160.534 101.863L160.53 101.864L160.527 101.864L160.523 101.865L160.52 101.866L160.517 101.867L160.513 101.867L160.51 101.868L160.506 101.869L160.503 101.869L160.499 101.87L160.496 101.871L160.493 101.871L160.489 101.872L160.486 101.873L160.482 101.873L160.479 101.874L160.475 101.875L160.472 101.875L160.469 101.876L160.465 101.877L160.462 101.878L160.458 101.878L160.455 101.879L160.451 101.88L160.448 101.88L160.444 101.881L160.441 101.882L160.438 101.882L160.434 101.883L160.431 101.884L160.427 101.884L160.424 101.885L160.42 101.886L160.417 101.886L160.414 101.887L160.41 101.888L160.407 101.889L160.403 101.889L160.4 101.89L160.396 101.891L160.393 101.891L160.39 101.892L160.386 101.893L160.383 101.893L160.379 101.894L160.376 101.895L160.372 101.895L160.369 101.896L160.366 101.897L160.362 101.897L160.359 101.898L160.357 101.898H160.356H160.353H160.349H160.346H160.342H160.339H160.335H160.332H160.329H160.325H160.322H160.318H160.315H160.311H160.308H160.305H160.301H160.298H160.294H160.291H160.287H160.284H160.281H160.277H160.274H160.27H160.267H160.263H160.26H160.256H160.253H160.25H160.246H160.243H160.239H160.236H160.232H160.229H160.226H160.222H160.219H160.215H160.212H160.208H160.205H160.202H160.198H160.195H160.191H160.188H160.184H160.181H160.178H160.174H160.171H160.167H160.164H160.16H160.157H160.153H160.15H160.147H160.143H160.14H160.136H160.133H160.129H160.126H160.123H160.119H160.116H160.112H160.109H160.105H160.102H160.099H160.095H160.092H160.088H160.085H160.081H160.078H160.075H160.071H160.068H160.064H160.061H160.057H160.054H160.05H160.047H160.044H160.04H160.037H160.033H160.03H160.026H160.023H160.02H160.016H160.013H160.009H160.006H160.002H159.999H159.996H159.992H159.989H159.985H159.982H159.978H159.975H159.972H159.968H159.965H159.961H159.958H159.954H159.951H159.947H159.944H159.941H159.937H159.934H159.93H159.927H159.923H159.92H159.917H159.913H159.91H159.906H159.903H159.899H159.896H159.893H159.889H159.886H159.882H159.879H159.875H159.872H159.869H159.865H159.862H159.858H159.855H159.851H159.848H159.844H159.841H159.838H159.834H159.831H159.827H159.824H159.82H159.817H159.814H159.81H159.807H159.803H159.8H159.796H159.793H159.79H159.786H159.783H159.779H159.776H159.772H159.769H159.766H159.762H159.759H159.755H159.752H159.748H159.745H159.742H159.738H159.735H159.731H159.728H159.724H159.721H159.717H159.714H159.711H159.707H159.704H159.7H159.697H159.693H159.69H159.687H159.683H159.68H159.676H159.673H159.669H159.666H159.663H159.659H159.656H159.652H159.649H159.645H159.642H159.639H159.635H159.632H159.628H159.625H159.621H159.618H159.614H159.611H159.608H159.604H159.601H159.597H159.594H159.59H159.587H159.584H159.58H159.577H159.573H159.57H159.566H159.563H159.56H159.556H159.553H159.549H159.546H159.542H159.539H159.536H159.532H159.529H159.525H159.522H159.518H159.515H159.511H159.508H159.505H159.501H159.498H159.494H159.491H159.487H159.484H159.481H159.477H159.474H159.47H159.467H159.463H159.46H159.457H159.453H159.45H159.446H159.443H159.439H159.436H159.433H159.429H159.426H159.422H159.419H159.415H159.412H159.408H159.405H159.402H159.398H159.395H159.391H159.388H159.384H159.381H159.378H159.374H159.371H159.367H159.364H159.36H159.357H159.354H159.35H159.347H159.343H159.34H159.336H159.333H159.33H159.326H159.323H159.319H159.316H159.312H159.309H159.305H159.302H159.299H159.295H159.292H159.288H159.285H159.281H159.278H159.275H159.271H159.268H159.264H159.261H159.257H159.254H159.251H159.247H159.244H159.24H159.237H159.233H159.23H159.227H159.223H159.22H159.216H159.213H159.209H159.206H159.202H159.199H159.196H159.192H159.189H159.185H159.182H159.178H159.175H159.172H159.168H159.165H159.161H159.158H159.154H159.151H159.148H159.144H159.141H159.137H159.134H159.13H159.127H159.124H159.12H159.117H159.113H159.11H159.106H159.103H159.099H159.096H159.093H159.089H159.086H159.082H159.079H159.075H159.072H159.069H159.065H159.062H159.058H159.055H159.051H159.048H159.045H159.041H159.038H159.034H159.031H159.027H159.024H159.021H159.017H159.014H159.01H159.007H159.003H159H158.996H158.993H158.99H158.986H158.983H158.979H158.976H158.972H158.969H158.966H158.962H158.959H158.955H158.952H158.948H158.945H158.942H158.938H158.935H158.931H158.928H158.924H158.921H158.918H158.914H158.911H158.907H158.904H158.9H158.897H158.893H158.89H158.887H158.883H158.88H158.876H158.873H158.869H158.866H158.863H158.859H158.856H158.852H158.849H158.845H158.842H158.839H158.835H158.832H158.828H158.825H158.821H158.818H158.815H158.811H158.808H158.804H158.801H158.797C155.363 101.898 152.858 101.4 151.138 100.557C149.413 99.5314 148.248 98.368 147.526 97.1054C146.731 95.7141 146.224 94.1603 146.019 92.4211C145.792 90.3781 145.68 88.4623 145.68 86.6719C145.68 85.8262 145.791 85.0337 146.005 84.2871C147.572 82.3573 149.191 80.9322 150.847 79.9582L150.861 79.9497L150.875 79.9409C152.706 78.822 154.518 78.3008 156.336 78.3008C157.011 78.3008 157.616 78.5597 158.235 79.4107L158.296 79.4949L158.365 79.5723C159.167 80.463 159.867 81.7524 160.394 83.5448L160.415 83.6146L160.44 83.6827C161.073 85.3703 161.509 87.3066 161.729 89.5076C161.951 91.7226 161.95 93.8707 161.73 95.9547L161.719 96.0591V96.1641C161.719 96.8662 161.585 97.7938 161.262 98.9777Z" stroke="black" stroke-width="4"/>
<path d="M77.8832 21.8605C80.8031 21.5066 83.7222 21.2891 86.6409 21.208C86.0467 23.454 85.334 26.1146 84.5027 29.1904C83.3275 33.4211 82.0947 38.0593 80.804 43.1043C79.518 48.0147 78.1146 53.2188 76.5939 58.7168L76.59 58.731L76.5863 58.7452C75.1789 64.1401 73.83 69.4182 72.5397 74.5795C71.253 79.6093 70.0252 84.2864 68.8564 88.611L68.8498 88.6355L68.8438 88.6601C67.7892 92.9955 66.9101 96.6293 66.2065 99.561C63.873 109.128 61.4259 117.866 58.8661 125.778C56.3127 133.554 53.5986 140.186 50.732 145.689L50.7282 145.697L50.7243 145.704C47.8682 151.302 44.7807 155.533 41.5 158.486C38.3037 161.363 34.9002 162.719 31.2363 162.719C29.8122 162.719 28.4271 162.392 27.0608 161.713C25.8761 161.069 24.7004 160.022 23.5596 158.475C22.5678 156.975 21.7174 154.946 21.0574 152.319C20.5246 149.738 20.35 146.54 20.5766 142.688L20.5768 142.686C20.9127 136.862 22.364 131.647 24.9046 127.008C27.5207 122.23 30.4511 118.299 33.6802 115.181L33.6928 115.169L33.7052 115.156C36.9926 111.869 40.076 109.639 42.947 108.363C44.4441 107.697 45.5818 107.354 46.4016 107.243C47.243 107.129 47.4887 107.293 47.4917 107.295L49.6054 108.774L50.5113 106.358C51.3193 104.204 51.5947 101.97 51.3352 99.6836C51.2013 97.3965 50.6892 95.294 49.7614 93.4105C48.9445 91.4039 47.7094 89.7371 46.0463 88.4683C44.4288 87.0253 42.5166 86.2539 40.377 86.2539C37.1494 86.2539 33.499 87.9731 29.5488 90.8434C25.4733 93.6872 21.526 97.6546 17.6923 102.686C13.8202 107.769 10.4579 113.784 7.59142 120.712C4.68355 127.739 3.0572 135.351 2.69562 143.53C2.44977 148.341 3.12384 152.695 4.78707 156.538C6.4053 160.393 8.60359 163.674 11.3983 166.341C14.1545 168.972 17.2947 170.985 20.8085 172.37C24.317 173.869 27.9148 174.629 31.5879 174.629C37.9082 174.629 43.7135 173.075 48.9585 169.953C54.0758 166.907 58.6358 163.013 62.6377 158.286C66.6091 153.711 70.0333 148.603 72.9123 142.967C75.8693 137.407 78.3608 132.011 80.3827 126.779C82.5097 121.461 84.175 116.647 85.3704 112.344L85.3741 112.33C86.5466 107.992 87.3743 104.801 87.8511 102.774L87.8535 102.765L87.8557 102.755L106.117 21.4406C107.807 21.5486 109.429 21.6889 110.982 21.8613L110.991 21.8623L111.002 21.8637L111.013 21.865L111.024 21.8664L111.035 21.8678L111.046 21.8692L111.057 21.8705L111.068 21.8719L111.079 21.8733L111.09 21.8747L111.101 21.876L111.112 21.8774L111.123 21.8788L111.134 21.8802L111.145 21.8815L111.155 21.8829L111.166 21.8843L111.177 21.8856L111.188 21.887L111.199 21.8884L111.21 21.8898L111.221 21.8911L111.232 21.8925L111.243 21.8939L111.254 21.8953L111.265 21.8966L111.276 21.898L111.287 21.8994L111.298 21.9008L111.309 21.9021L111.32 21.9035L111.331 21.9049L111.342 21.9062L111.353 21.9076L111.364 21.909L111.375 21.9104L111.386 21.9117L111.397 21.9131L111.408 21.9145L111.419 21.9159L111.43 21.9172L111.441 21.9186L111.452 21.92L111.463 21.9214L111.474 21.9227L111.485 21.9241L111.496 21.9255L111.507 21.9268L111.518 21.9282L111.529 21.9296L111.54 21.931L111.551 21.9323L111.562 21.9337L111.573 21.9351L111.584 21.9365L111.595 21.9378L111.606 21.9392L111.617 21.9406L111.628 21.942L111.639 21.9433L111.65 21.9447L111.661 21.9461L111.672 21.9474L111.683 21.9488L111.694 21.9502L111.705 21.9516L111.716 21.9529L111.727 21.9543L111.738 21.9557L111.749 21.9571L111.76 21.9584L111.771 21.9598L111.782 21.9612L111.793 21.9626L111.804 21.9639L111.815 21.9653L111.826 21.9667L111.837 21.968L111.848 21.9694L111.859 21.9708L111.87 21.9722L111.881 21.9735L111.892 21.9749L111.903 21.9763L111.914 21.9777L111.925 21.979L111.936 21.9804L111.947 21.9818L111.957 21.9832L111.968 21.9845L111.979 21.9859L111.99 21.9873L112.001 21.9886L112.012 21.99L112.023 21.9914L112.034 21.9928L112.045 21.9941L112.056 21.9955L112.067 21.9969L112.078 21.9983L112.089 21.9996L112.1 22.001L112.111 22.0024L112.122 22.0038L112.133 22.0051L112.144 22.0065L112.155 22.0079L112.166 22.0092L112.177 22.0106L112.188 22.012L112.199 22.0134L112.21 22.0147L112.221 22.0161L112.232 22.0175L112.243 22.0189L112.254 22.0202L112.265 22.0216L112.276 22.023L112.287 22.0244L112.298 22.0257L112.309 22.0271L112.32 22.0285L112.331 22.0298L112.342 22.0312L112.353 22.0326L112.364 22.034L112.375 22.0353L112.386 22.0367L112.397 22.0381L112.408 22.0395L112.419 22.0408L112.43 22.0422L112.441 22.0436L112.452 22.045L112.463 22.0463L112.474 22.0477L112.485 22.0491L112.496 22.0504L112.507 22.0518L112.518 22.0532L112.529 22.0546L112.54 22.0559L112.551 22.0573L112.562 22.0587L112.573 22.0601L112.584 22.0614L112.595 22.0628L112.606 22.0642L112.617 22.0655L112.628 22.0669L112.639 22.0683L112.65 22.0697L112.661 22.071L112.672 22.0724L112.683 22.0738L112.694 22.0752L112.705 22.0765L112.716 22.0779L112.727 22.0793L112.738 22.0807L112.749 22.082L112.759 22.0834L112.77 22.0848L112.781 22.0861L112.792 22.0875L112.803 22.0889L112.814 22.0903L112.825 22.0916L112.836 22.093L112.847 22.0944L112.858 22.0958L112.869 22.0971L112.88 22.0985L112.891 22.0999L112.902 22.1013L112.913 22.1026L112.924 22.104L112.935 22.1054L112.946 22.1067L112.957 22.1081L112.968 22.1095L112.979 22.1109L112.99 22.1122L113.001 22.1136L113.012 22.115L113.023 22.1164L113.034 22.1177L113.045 22.1191L113.056 22.1205L113.067 22.1219L113.078 22.1232L113.089 22.1246L113.1 22.126L113.111 22.1273L113.122 22.1287L113.133 22.1301L113.144 22.1315L113.155 22.1328L113.166 22.1342L113.177 22.1356L113.188 22.137L113.199 22.1383L113.21 22.1397L113.221 22.1411L113.232 22.1425L113.243 22.1438L113.254 22.1452L113.265 22.1466L113.276 22.1479L113.287 22.1493L113.298 22.1507L113.309 22.1521L113.32 22.1534L113.331 22.1548L113.342 22.1562L113.353 22.1576L113.364 22.1589L113.375 22.1603L113.386 22.1617L113.397 22.1631L113.408 22.1644L113.419 22.1658L113.43 22.1672L113.441 22.1685L113.452 22.1699L113.463 22.1713L113.474 22.1727L113.485 22.174L113.496 22.1754L113.507 22.1768L113.518 22.1782L113.529 22.1795L113.54 22.1809L113.551 22.1823L113.562 22.1837L113.572 22.185L113.583 22.1864L113.594 22.1878L113.605 22.1891L113.616 22.1905L113.627 22.1919L113.638 22.1933L113.649 22.1946L113.66 22.196L113.671 22.1974L113.682 22.1988L113.693 22.2001L113.704 22.2015L113.715 22.2029L113.726 22.2043L113.737 22.2056L113.748 22.207L113.759 22.2084L113.77 22.2097L113.781 22.2111L113.792 22.2125L113.803 22.2139L113.814 22.2152L113.825 22.2166L113.836 22.218L113.847 22.2194L113.858 22.2207L113.869 22.2221L113.88 22.2235L113.891 22.2249L113.902 22.2262L113.913 22.2276L113.924 22.229L113.935 22.2303L113.946 22.2317L113.957 22.2331L113.968 22.2345L113.979 22.2358L113.99 22.2372L114.001 22.2386L114.012 22.24L114.023 22.2413L114.034 22.2427L114.045 22.2441L114.056 22.2455L114.067 22.2468L114.078 22.2482L114.089 22.2496L114.1 22.2509L114.111 22.2523L114.122 22.2537L114.133 22.2551L114.144 22.2564L114.155 22.2578L114.166 22.2592L114.177 22.2606L114.188 22.2619L114.199 22.2633L114.21 22.2647L114.221 22.2661L114.232 22.2674L114.243 22.2688L114.254 22.2702L114.265 22.2715L114.276 22.2729L114.287 22.2743L114.298 22.2757L114.309 22.277L114.32 22.2784L114.331 22.2798L114.342 22.2812L114.353 22.2825L114.364 22.2839L114.374 22.2853L114.385 22.2866L114.396 22.288L114.407 22.2894L114.418 22.2908L114.429 22.2921L114.44 22.2935L114.451 22.2949L114.462 22.2963L114.473 22.2976L114.484 22.299L114.495 22.3004L114.506 22.3018L114.517 22.3031L114.528 22.3045L114.539 22.3059L114.55 22.3072L114.561 22.3086L114.572 22.31L114.583 22.3114L114.594 22.3127L114.605 22.3141L114.616 22.3155L114.627 22.3169L114.638 22.3182L114.649 22.3196L114.66 22.321L114.671 22.3224L114.682 22.3237L114.693 22.3251L114.704 22.3265L114.715 22.3278L114.726 22.3292L114.737 22.3306L114.748 22.332L114.759 22.3333L114.77 22.3347L114.781 22.3361L114.792 22.3375L114.803 22.3388L114.814 22.3402L114.825 22.3416L114.836 22.343L114.847 22.3443L114.858 22.3457L114.869 22.3471L114.88 22.3484L114.891 22.3498L114.902 22.3512L114.913 22.3526L114.924 22.3539L114.935 22.3553L114.946 22.3567L114.957 22.3581L114.968 22.3594L114.979 22.3608L114.99 22.3622L115.001 22.3636L115.012 22.3649L115.023 22.3663L115.034 22.3677L115.045 22.369L115.056 22.3704L115.067 22.3718L115.078 22.3732L115.089 22.3745L115.1 22.3759L115.111 22.3773L115.122 22.3787L115.133 22.38L115.144 22.3814L115.155 22.3828L115.166 22.3842L115.176 22.3855L115.187 22.3869L115.198 22.3883L115.209 22.3896L115.22 22.391L115.231 22.3924L115.242 22.3938L115.253 22.3951L115.264 22.3965L115.275 22.3979L115.286 22.3993L115.297 22.4006L115.308 22.402L115.319 22.4034L115.33 22.4048L115.341 22.4061L115.352 22.4075L115.363 22.4089L115.374 22.4102L115.385 22.4116L115.396 22.413L115.407 22.4144L115.418 22.4157L115.429 22.4171L115.44 22.4185L115.451 22.4199L115.462 22.4212L115.473 22.4226L115.484 22.424L115.495 22.4254L115.506 22.4267L115.517 22.4281L115.528 22.4295L115.539 22.4308L115.55 22.4322L115.561 22.4336L115.572 22.435L115.583 22.4363L115.594 22.4377L115.605 22.4391L115.616 22.4405L115.627 22.4418L115.638 22.4432L115.649 22.4446L115.66 22.446L115.671 22.4473L115.682 22.4487L115.693 22.4501L115.704 22.4514L115.715 22.4528L115.726 22.4542L115.737 22.4556L115.748 22.4569L115.759 22.4583L115.77 22.4597L115.781 22.4611L115.792 22.4624L115.803 22.4638L115.814 22.4652L115.825 22.4666L115.836 22.4679L115.847 22.4693L115.858 22.4707L115.869 22.472L115.88 22.4734L115.891 22.4748L115.902 22.4762L115.913 22.4775L115.924 22.4789L115.935 22.4803L115.946 22.4817L115.957 22.483L115.968 22.4844L115.978 22.4858L115.989 22.4872L116 22.4885L116.011 22.4899L116.022 22.4913L116.033 22.4926L116.044 22.494L116.055 22.4954L116.066 22.4968L116.077 22.4981L116.088 22.4995L116.099 22.5009L116.11 22.5023L116.121 22.5036L116.132 22.505L116.143 22.5064L116.154 22.5077L116.165 22.5091L116.176 22.5105L116.187 22.5119L116.198 22.5132L116.209 22.5146L116.22 22.516L116.231 22.5174L116.242 22.5187L116.253 22.5201L116.264 22.5215L116.275 22.5229L116.286 22.5242L116.297 22.5256L116.308 22.527L116.319 22.5283L116.33 22.5297L116.341 22.5311L116.352 22.5325L116.363 22.5338L116.374 22.5352L116.385 22.5366L116.396 22.538L116.407 22.5393L116.418 22.5407L116.429 22.5421L116.44 22.5435L116.451 22.5448L116.462 22.5462L116.473 22.5476L116.484 22.5489L116.495 22.5503L116.506 22.5517L116.517 22.5531L116.528 22.5544L116.539 22.5558L116.55 22.5572L116.561 22.5586L116.572 22.5599L116.583 22.5613L116.594 22.5627L116.659 22.5708L116.724 22.5747C118.639 22.6873 120.13 22.9087 121.237 23.2108L122.037 23.4288L122.756 23.0177C123.804 22.419 124.684 21.6384 125.343 20.6609C125.979 19.7666 126.483 18.8613 126.798 17.9501C127.24 16.8907 127.455 15.7681 127.455 14.6016C127.455 13.8948 127.386 13.2095 127.226 12.5604C126.9 11.1174 126.174 9.85519 125.111 8.79282L124.726 8.40686L124.197 8.27048C120.486 7.31278 116.772 6.59371 113.055 6.1141C109.407 5.6434 106.1 5.28867 103.138 5.05119C99.6845 4.6947 96.3421 4.51562 93.1113 4.51562C88.728 4.51562 84.4585 4.69306 80.3032 5.04866C76.742 5.28663 72.8973 5.7011 68.7709 6.29005C64.7056 6.76951 61.0755 7.49242 57.8942 8.47125L56.9105 8.77394L56.5851 9.75036C56.1926 10.9277 55.9271 12.1155 55.7931 13.3119C55.6777 14.2345 55.5626 15.0973 55.4478 15.9008L55.4454 15.9181L55.4432 15.9355C55.3054 17.0378 55.3054 18.1419 55.4432 19.2442L55.4454 19.2616L55.4478 19.2789C55.5669 20.1122 55.6864 20.8894 55.8065 21.61L55.8118 21.6419L55.8181 21.6735L55.8188 21.6769L55.8195 21.6803L55.8202 21.6838L55.8209 21.6872L55.8216 21.6906L55.8223 21.6941L55.8229 21.6975L55.8236 21.7009L55.8243 21.7044L55.825 21.7078L55.8257 21.7112L55.8264 21.7147L55.8271 21.7181L55.8277 21.7215L55.8284 21.725L55.8291 21.7284L55.8298 21.7318L55.8305 21.7353L55.8312 21.7387L55.8319 21.7421L55.8326 21.7456L55.8332 21.749L55.8339 21.7524L55.8346 21.7559L55.8353 21.7593L55.836 21.7627L55.8367 21.7662L55.8374 21.7696L55.838 21.773L55.8387 21.7765L55.8394 21.7799L55.8401 21.7833L55.8408 21.7868L55.8415 21.7902L55.8422 21.7936L55.8429 21.7971L55.8435 21.8005L55.8442 21.8039L55.8449 21.8074L55.8456 21.8108L55.8463 21.8142L55.847 21.8177L55.8477 21.8211L55.8483 21.8245L55.849 21.828L55.8497 21.8314L55.8504 21.8348L55.8511 21.8383L55.8518 21.8417L55.8525 21.8451L55.8532 21.8486L55.8538 21.852L55.8545 21.8554L55.8552 21.8589L55.8559 21.8623L55.8566 21.8657L55.8573 21.8692L55.858 21.8726L55.8586 21.876L55.8593 21.8795L55.86 21.8829L55.8607 21.8863L55.8614 21.8898L55.8621 21.8932L55.8628 21.8966L55.8635 21.9001L55.8641 21.9035L55.8648 21.9069L55.8655 21.9104L55.8662 21.9138L55.8669 21.9172L55.8676 21.9207L55.8683 21.9241L55.8689 21.9275L55.8696 21.931L55.8703 21.9344L55.871 21.9378L55.8717 21.9413L55.8724 21.9447L55.8731 21.9481L55.8738 21.9516L55.8744 21.955L55.8751 21.9584L55.8758 21.9619L55.8765 21.9653L55.8772 21.9687L55.8779 21.9722L55.8786 21.9756L55.8792 21.979L55.8799 21.9825L55.8806 21.9859L55.8813 21.9893L55.882 21.9928L55.8827 21.9962L55.8834 21.9996L55.8841 22.0031L55.8847 22.0065L55.8854 22.0099L55.8861 22.0134L55.8868 22.0168L55.8875 22.0202L55.8882 22.0237L55.8889 22.0271L55.8895 22.0305L55.8902 22.034L55.8909 22.0374L55.8916 22.0408L55.8923 22.0443L55.893 22.0477L55.8937 22.0511L55.8944 22.0546L55.895 22.058L55.8957 22.0614L55.8964 22.0649L55.8971 22.0683L55.8978 22.0717L55.8985 22.0752L55.8992 22.0786L55.8998 22.082L55.9005 22.0855L55.9012 22.0889L55.9019 22.0923L55.9026 22.0958L55.9033 22.0992L55.904 22.1026L55.9047 22.1061L55.9053 22.1095L55.906 22.1129L55.9067 22.1164L55.9074 22.1198L55.9081 22.1232L55.9088 22.1267L55.9095 22.1301L55.9101 22.1335L55.9108 22.137L55.9115 22.1404L55.9122 22.1438L55.9129 22.1473L55.9136 22.1507L55.9143 22.1541L55.915 22.1576L55.9156 22.161L55.9163 22.1644L55.917 22.1679L55.9177 22.1713L55.9184 22.1747L55.9191 22.1782L55.9198 22.1816L55.9204 22.185L55.9211 22.1885L55.9218 22.1919L55.9225 22.1953L55.9232 22.1988L55.9239 22.2022L55.9246 22.2056L55.9253 22.2091L55.9259 22.2125L55.9266 22.2159L55.9273 22.2194L55.928 22.2228L55.9287 22.2262L55.9294 22.2297L55.9301 22.2331L55.9307 22.2365L55.9314 22.24L55.9321 22.2434L55.9328 22.2468L55.9335 22.2503L55.9342 22.2537L55.9349 22.2571L55.9356 22.2606L55.9362 22.264L55.9369 22.2674L55.9376 22.2709L55.9383 22.2743L55.939 22.2777L55.9397 22.2812L55.9404 22.2846L55.941 22.288L55.9417 22.2915L55.9424 22.2949L55.9431 22.2983L55.9438 22.3018L55.9445 22.3052L55.9452 22.3086L55.9459 22.3121L55.9465 22.3155L55.9472 22.3189L55.9479 22.3224L55.9486 22.3258L55.9493 22.3292L55.95 22.3327L55.9507 22.3361L55.9513 22.3395L55.952 22.343L55.9527 22.3464L55.9534 22.3498L55.9541 22.3533L55.9548 22.3567L55.9555 22.3601L55.9562 22.3636L55.9568 22.367L55.9575 22.3704L55.9582 22.3739L55.9589 22.3773L55.9596 22.3807L55.9603 22.3842L55.961 22.3876L55.9616 22.391L55.9623 22.3945L55.963 22.3979L55.9637 22.4013L55.9644 22.4048L55.9651 22.4082L55.9658 22.4116L55.9664 22.4151L55.9671 22.4185L55.9678 22.4219L55.9685 22.4254L55.9692 22.4288L55.9699 22.4322L55.9706 22.4357L55.9713 22.4391L55.9719 22.4425L55.9726 22.446L55.9733 22.4494L55.974 22.4528L55.9747 22.4563L55.9754 22.4597L55.9761 22.4631L55.9767 22.4666L55.9774 22.47L55.9781 22.4734L55.9788 22.4769L55.9795 22.4803L55.9802 22.4837L55.9809 22.4872L55.9816 22.4906L55.9822 22.494L55.9829 22.4975L55.9836 22.5009L55.9843 22.5043L55.985 22.5078L55.9857 22.5112L55.9864 22.5146L55.987 22.5181L55.9877 22.5215L55.9884 22.5249L55.9891 22.5284L55.9898 22.5318L55.9905 22.5352L55.9912 22.5387L55.9919 22.5421L55.9925 22.5455L55.9932 22.549L55.9939 22.5524L55.9946 22.5558L55.9953 22.5593L55.996 22.5627L55.9967 22.5661L55.9973 22.5696L55.998 22.573L55.9987 22.5764L55.9994 22.5799L56.0001 22.5833L56.0008 22.5867L56.0015 22.5902L56.0022 22.5936L56.0028 22.597L56.0035 22.6005L56.0042 22.6039L56.0049 22.6073L56.0056 22.6108L56.0063 22.6142L56.007 22.6176L56.0076 22.6211L56.0083 22.6245L56.009 22.6279L56.0097 22.6314L56.0104 22.6348L56.0111 22.6382L56.0118 22.6417L56.0125 22.6451L56.0131 22.6485L56.0138 22.652L56.0145 22.6554L56.0152 22.6588L56.0159 22.6623L56.0166 22.6657L56.0173 22.6691L56.0179 22.6726L56.0186 22.676L56.0193 22.6794L56.02 22.6829L56.0207 22.6863L56.0214 22.6897L56.0221 22.6932L56.0228 22.6966L56.0234 22.7L56.0241 22.7035L56.0248 22.7069L56.0255 22.7103L56.0262 22.7138L56.0269 22.7172L56.0276 22.7206L56.0282 22.7241L56.0289 22.7275L56.0296 22.7309L56.0303 22.7344L56.031 22.7378L56.0317 22.7412L56.0324 22.7446L56.0331 22.7481L56.0337 22.7515L56.0344 22.7549L56.0351 22.7584L56.0358 22.7618L56.0365 22.7652L56.0372 22.7687L56.0379 22.7721L56.0385 22.7755L56.0392 22.779L56.0399 22.7824L56.0406 22.7858L56.0413 22.7893L56.042 22.7927L56.0427 22.7961L56.0434 22.7996L56.044 22.803L56.0447 22.8064L56.0454 22.8099L56.0461 22.8133L56.0468 22.8167L56.0475 22.8202L56.0482 22.8236L56.0488 22.827L56.0495 22.8305L56.0502 22.8339L56.0509 22.8373L56.0516 22.8408L56.0523 22.8442L56.053 22.8476L56.0537 22.8511L56.0543 22.8545L56.055 22.8579L56.0557 22.8614L56.0564 22.8648L56.0571 22.8682L56.0578 22.8717L56.0585 22.8751L56.0591 22.8785L56.0598 22.882L56.0605 22.8854L56.0612 22.8888L56.0619 22.8923L56.0626 22.8957L56.0633 22.8991L56.064 22.9026L56.0646 22.906L56.0653 22.9094L56.066 22.9129L56.0667 22.9163L56.0674 22.9197L56.0681 22.9232L56.0688 22.9266L56.0694 22.93L56.0701 22.9335L56.0708 22.9369L56.0715 22.9403L56.0722 22.9438L56.0729 22.9472L56.0736 22.9506L56.0743 22.9541L56.0749 22.9575L56.0756 22.9609L56.0763 22.9644L56.077 22.9678L56.0777 22.9712L56.0784 22.9747L56.0791 22.9781L56.0797 22.9815L56.0804 22.985L56.0811 22.9884L56.0818 22.9918L56.0825 22.9953L56.0832 22.9987L56.0839 23.0021L56.0846 23.0056L56.0852 23.009L56.0859 23.0124L56.0866 23.0159L56.0873 23.0193L56.088 23.0227L56.0887 23.0262L56.0894 23.0296L56.09 23.033L56.0907 23.0365L56.0914 23.0399L56.0921 23.0433L56.0928 23.0468L56.0935 23.0502L56.0942 23.0536L56.0949 23.0571L56.0955 23.0605L56.0962 23.0639L56.0969 23.0674L56.0976 23.0708L56.0983 23.0742L56.099 23.0777L56.0997 23.0811L56.1003 23.0845L56.101 23.088L56.1017 23.0914L56.1024 23.0948L56.1031 23.0983L56.1038 23.1017L56.1045 23.1051L56.1052 23.1086L56.1058 23.112L56.1065 23.1154L56.1072 23.1189L56.1079 23.1223L56.1086 23.1257L56.1093 23.1292L56.11 23.1326L56.1106 23.136L56.1113 23.1395L56.112 23.1429L56.1127 23.1463L56.1134 23.1498L56.1141 23.1532L56.1148 23.1566L56.1155 23.1601L56.1161 23.1635L56.1168 23.1669L56.1175 23.1704L56.1182 23.1738L56.1189 23.1772L56.1196 23.1807L56.1203 23.1841L56.1209 23.1875L56.1216 23.191L56.1223 23.1944L56.123 23.1978L56.1237 23.2013L56.1244 23.2047L56.1251 23.2081L56.1258 23.2116L56.1264 23.215L56.1271 23.2184L56.1278 23.2219L56.1285 23.2253L56.1292 23.2287L56.1299 23.2322L56.1306 23.2356L56.1312 23.239L56.1319 23.2425L56.1326 23.2459L56.1333 23.2493L56.134 23.2528L56.1347 23.2562L56.1354 23.2596L56.1361 23.2631L56.1367 23.2665L56.1374 23.2699L56.1381 23.2734L56.1388 23.2768L56.1395 23.2802L56.1402 23.2837L56.1409 23.2871L56.1415 23.2905L56.1422 23.294L56.1429 23.2974L56.1436 23.3008L56.1443 23.3043L56.145 23.3077L56.1457 23.3111L56.1464 23.3146L56.147 23.318L56.1477 23.3214L56.1484 23.3249L56.1491 23.3283L56.1498 23.3317L56.1505 23.3352L56.1512 23.3386L56.1518 23.342L56.1525 23.3455L56.1532 23.3489L56.1539 23.3523L56.1546 23.3558L56.1553 23.3592L56.156 23.3626L56.1567 23.3661L56.1573 23.3695L56.158 23.3729L56.1587 23.3764L56.1594 23.3798L56.1601 23.3832L56.1608 23.3867L56.1615 23.3901L56.1621 23.3935L56.1628 23.397L56.1635 23.4004L56.1642 23.4038L56.1649 23.4073L56.1656 23.4107L56.1663 23.4141L56.167 23.4176L56.1676 23.421L56.1683 23.4244L56.169 23.4279L56.1697 23.4313L56.179 23.478L56.1906 23.5241C56.3389 24.1174 56.7046 25.1772 57.7638 25.7068L58.613 26.1315L59.4789 25.7418C61.6185 24.779 64.37 23.9975 67.7761 23.4298L67.8079 23.4245L67.8395 23.4182C71.3009 22.7259 74.6394 22.2082 77.8556 21.8636L77.8695 21.8621L77.8832 21.8605Z" stroke="black" stroke-width="4"/>
</svg>
