<svg width="164" height="214" viewBox="0 0 164 214" fill="none" xmlns="http://www.w3.org/2000/svg">
<rect y="65" width="86" height="149" rx="1" fill="#8EDDF6"/>
<rect x="86" y="65" width="72" height="149" rx="1" fill="#4F9AB2"/>
<rect x="34" width="87" height="23" rx="1" fill="#8EDDF6"/>
<path d="M2.02747 65C1.19841 65 0.729417 64.0491 1.23403 63.3913L34.2201 20.3913C34.4094 20.1446 34.7026 20 35.0135 20L119.473 20C120.302 20 120.771 20.9509 120.266 21.6087L87.2799 64.6087C87.0906 64.8554 86.7974 65 86.4865 65L2.02747 65Z" fill="#D9F3FB"/>
<path d="M121.497 19.497L157.984 64.9598L86.1091 65.8204L121.497 19.497Z" fill="#D9D9D9"/>
<path d="M21.6433 126L17.5183 112.559H17.4128C17.4284 112.879 17.4519 113.363 17.4831 114.012C17.5222 114.652 17.5573 115.336 17.5886 116.062C17.6198 116.789 17.6355 117.445 17.6355 118.031V126H14.3894V108.867H19.3347L23.3894 121.969H23.4597L27.7605 108.867H32.7058V126H29.3191V117.891C29.3191 117.352 29.3269 116.73 29.3425 116.027C29.3659 115.324 29.3933 114.656 29.4245 114.023C29.4558 113.383 29.4792 112.902 29.4948 112.582H29.3894L24.9714 126H21.6433ZM37.51 126V108.867H41.1428V126H37.51ZM45.9353 126V108.867H49.5681V123H56.5173V126H45.9353ZM73.7669 126H69.6419L65.1536 118.781L63.6184 119.883V126H59.9856V108.867H63.6184V116.707C63.8606 116.371 64.0989 116.035 64.3333 115.699C64.5677 115.363 64.8059 115.027 65.0481 114.691L69.6888 108.867H73.72L67.7434 116.449L73.7669 126Z" fill="#F400A1"/>
</svg>
