<svg width="502" height="342" viewBox="0 0 502 342" fill="none" xmlns="http://www.w3.org/2000/svg">
<path d="M48.3914 36.8709C53.4694 16.5077 74.0935 4.11646 94.4567 9.19438L465.106 101.622C485.47 106.7 497.861 127.324 492.783 147.687L453.586 304.874C448.508 325.237 427.884 337.628 407.52 332.55L36.8709 240.123C16.5076 235.045 4.11644 214.421 9.19435 194.057L48.3914 36.8709Z" fill="#F9EAB7"/>
<path fill-rule="evenodd" clip-rule="evenodd" d="M361.334 236.801L333.149 229.808L351.931 154.103L390.063 163.564C398.58 165.677 404.919 169.687 408.392 175.945C411.84 182.156 412.122 189.969 409.888 198.972C408.901 202.951 407.577 206.612 405.903 209.941C404.178 213.372 401.948 216.276 399.193 218.6C396.46 220.924 393.239 222.483 389.595 223.302C385.854 224.172 381.67 223.943 377.142 222.82L365.518 219.936L361.334 236.801ZM363.329 216.302L377.864 219.908C382.088 220.956 385.775 221.113 388.925 220.377C392.137 219.658 394.913 218.302 397.253 216.311C399.671 214.274 401.661 211.701 403.223 208.594C404.785 205.487 406.036 202.038 406.977 198.249C411.246 181.043 405.367 170.452 389.341 166.476L354.121 157.737L336.783 227.618L359.145 233.167L363.329 216.302ZM378.386 197.359C378.389 197.355 378.393 197.351 378.396 197.347C378.493 197.229 378.704 196.889 378.893 196.128L380.835 188.301C381.013 187.583 380.981 187.215 380.954 187.09C380.953 187.086 380.952 187.083 380.952 187.08L380.931 187.064C380.441 186.662 379.119 186.021 376.446 185.358L374.233 184.809L371.402 196.223L373.615 196.772C376.287 197.435 377.755 197.486 378.377 197.361L378.386 197.359ZM367.767 198.412L372.044 181.175L377.169 182.446C379.902 183.124 381.789 183.889 382.831 184.741C383.934 185.609 384.24 187.036 383.746 189.024L381.805 196.851C381.296 198.9 380.351 200.051 378.97 200.302C377.651 200.568 375.625 200.362 372.892 199.684L367.767 198.412Z" fill="#E8DAAA"/>
<path fill-rule="evenodd" clip-rule="evenodd" d="M300.496 218.616L300.638 206.881L282.19 202.303L276.923 212.767L253.35 206.918L288.764 141.522L323.332 150.098L324.069 224.465L300.496 218.616ZM283.792 205.792L278.526 216.256L248.866 208.897L287.232 138.051L326.308 147.746L327.108 228.309L297.468 220.955L297.61 209.22L283.792 205.792ZM300.125 167.09L301.336 167.391L300.954 188.067L290.705 185.524L300.125 167.09ZM298.148 177.552L295.096 183.523L298.024 184.249L298.148 177.552Z" fill="#E8DAAA"/>
<path fill-rule="evenodd" clip-rule="evenodd" d="M189.729 135.927L189.736 135.914C192.181 131.205 195.247 127.439 198.995 124.759L199.009 124.749L199.024 124.739C202.859 122.065 207.344 120.556 212.382 120.138C217.386 119.721 223.124 120.365 229.538 121.956C236.005 123.561 241.384 125.673 245.56 128.372C249.813 131.095 253.047 134.52 255.127 138.672C257.258 142.817 258.21 147.591 258.106 152.892C258.079 158.066 257.226 163.941 255.603 170.485C254.055 176.722 252.168 182.152 249.917 186.74L249.914 186.748C247.62 191.39 244.623 195.14 240.876 197.881C237.141 200.675 232.654 202.291 227.539 202.827L227.526 202.828L227.514 202.83C222.468 203.316 216.58 202.667 209.923 201.015C203.263 199.363 197.731 197.178 193.442 194.381L193.42 194.366L193.398 194.352C189.184 191.497 185.99 187.975 183.939 183.768L183.931 183.751L183.923 183.735C181.959 179.578 181.097 174.876 181.239 169.709L181.239 169.701C181.394 164.593 182.264 158.91 183.811 152.673C185.435 146.128 187.395 140.534 189.723 135.94L189.729 135.927ZM255.106 152.854C255.206 147.934 254.321 143.659 252.452 140.03C250.645 136.416 247.807 133.371 243.937 130.895C240.13 128.433 235.089 126.425 228.815 124.868C222.604 123.327 217.209 122.747 212.63 123.127C208.052 123.508 204.088 124.865 200.74 127.2C197.453 129.55 194.673 132.915 192.399 137.296C190.202 141.631 188.311 146.997 186.723 153.395C185.213 159.483 184.384 164.948 184.238 169.791C184.107 174.572 184.906 178.793 186.635 182.453C188.427 186.129 191.242 189.267 195.081 191.868C198.997 194.422 204.185 196.501 210.645 198.104C217.105 199.706 222.632 200.286 227.226 199.844C231.897 199.354 235.853 197.896 239.093 195.468C242.395 193.057 245.105 189.707 247.224 185.419C249.358 181.069 251.181 175.85 252.691 169.762C254.278 163.364 255.083 157.728 255.106 152.854ZM217.612 146.292L217.56 146.304C217.55 146.306 217.545 146.307 217.529 146.318C217.508 146.333 217.44 146.384 217.339 146.518C217.121 146.809 216.823 147.39 216.564 148.435L210.074 174.594L216.479 176.183C219.486 176.929 221.156 176.971 221.887 176.804C221.93 176.789 222.033 176.737 222.197 176.516C222.43 176.2 222.731 175.601 222.99 174.559L229.48 148.401L222.981 146.788C220.117 146.077 218.461 146.07 217.664 146.278L217.612 146.292ZM223.704 143.876C220.722 143.137 218.455 142.97 216.904 143.376C215.368 143.72 214.284 145.166 213.652 147.713L206.439 176.783L215.757 179.095C218.863 179.866 221.153 180.071 222.627 179.712C224.178 179.305 225.27 177.829 225.902 175.282L233.114 146.211L223.704 143.876Z" fill="#E8DAAA"/>
<path fill-rule="evenodd" clip-rule="evenodd" d="M102.145 170.492L112.329 147.268L115.179 148.765C121.437 152.055 127.182 154.325 132.423 155.625C135.181 156.31 137.599 156.877 139.681 157.33C140.763 157.533 141.779 157.704 142.729 157.843L142.811 157.511L135.553 155.054L135.536 155.048C130.969 153.439 127.128 151.659 124.083 149.676C121.023 147.683 118.577 145.353 116.88 142.641L116.853 142.598L116.827 142.554C115.248 139.83 114.361 136.85 114.157 133.655L114.154 133.612L114.153 133.569C114.042 130.431 114.474 127.01 115.386 123.333C116.616 118.376 118.192 114.212 120.182 110.945C122.209 107.578 124.804 104.976 128.008 103.296C131.198 101.569 134.857 100.787 138.878 100.832L138.89 100.832C142.866 100.892 147.428 101.584 152.539 102.853C162.595 105.347 171.531 108.571 179.321 112.545L181.804 113.811L172.321 136.354L169.549 135.174C162.93 132.355 157.677 130.487 153.74 129.51C150.83 128.788 148.24 128.244 145.961 127.871L145.907 128.088L151.166 129.924L151.178 129.929C156.095 131.691 160.219 133.64 163.482 135.809C166.743 137.905 169.349 140.322 171.157 143.108C173.013 145.888 174.072 148.937 174.287 152.211C174.554 155.357 174.215 158.709 173.339 162.241C172.109 167.197 170.379 171.39 168.063 174.702C165.868 177.839 163.469 180.292 160.807 181.831L160.796 181.837C158.636 183.074 156.203 183.829 153.551 184.155L153.512 184.159L153.473 184.163C150.983 184.403 148.424 184.406 145.801 184.178C143.229 183.955 140.668 183.562 138.117 183C135.7 182.533 133.503 182.055 131.527 181.565C126.582 180.338 121.879 178.902 117.418 177.254C112.972 175.612 108.731 173.783 104.697 171.767L102.145 170.492ZM138.724 180.062C141.162 180.601 143.608 180.977 146.061 181.19C148.514 181.403 150.889 181.398 153.186 181.177C155.498 180.893 157.538 180.246 159.306 179.233C161.461 177.988 163.561 175.904 165.604 172.982C167.648 170.06 169.256 166.239 170.427 161.518C171.244 158.226 171.533 155.199 171.295 152.436C171.12 149.689 170.238 147.129 168.651 144.757C167.125 142.401 164.855 140.255 161.84 138.32C158.841 136.323 154.949 134.467 150.165 132.753L142.337 130.019L143.701 124.522C146.713 124.874 150.3 125.566 154.462 126.598C158.244 127.537 163.067 129.223 168.929 131.658C169.517 131.902 170.115 132.154 170.724 132.413L177.958 115.217C170.407 111.366 161.694 108.215 151.817 105.764C146.848 104.531 142.524 103.887 138.845 103.832C135.228 103.791 132.086 104.496 129.419 105.944C126.767 107.33 124.543 109.515 122.748 112.498C120.968 115.42 119.485 119.272 118.298 124.055C117.435 127.533 117.053 130.67 117.151 133.464C117.326 136.211 118.084 138.739 119.423 141.05C120.839 143.314 122.939 145.351 125.72 147.162C128.502 148.973 132.106 150.659 136.533 152.219L146.388 155.554L145.001 161.144C143.262 160.977 141.29 160.685 139.085 160.27C136.958 159.808 134.496 159.231 131.701 158.537C126.949 157.358 121.87 155.44 116.462 152.783C115.578 152.349 114.685 151.895 113.783 151.421L106.038 169.084C109.969 171.048 114.109 172.834 118.458 174.44C122.807 176.047 127.404 177.451 132.249 178.653C134.175 179.131 136.333 179.6 138.724 180.062Z" fill="#E8DAAA"/>
</svg>
