<svg width="105" height="125" viewBox="0 0 105 125" fill="none" xmlns="http://www.w3.org/2000/svg">
<path d="M60 17C60 26.3888 55.9706 34 51 34C46.0294 34 42 26.3888 42 17C51 0 51 0 51 0C51 0 51 0 60 17Z" fill="#5AD880"/>
<path d="M74.6369 26.1776C70.514 34.6127 63.5515 39.6813 59.0859 37.4986C54.6202 35.3158 54.3424 26.7083 58.4653 18.2732C74.0163 6.95219 74.0163 6.95219 74.0163 6.95219C74.0163 6.95219 74.0163 6.95219 74.6369 26.1776Z" fill="#5AD880"/>
<path d="M28.4653 26.1776C32.5882 34.6127 39.5507 39.6813 44.0163 37.4986C48.482 35.3158 48.7598 26.7083 44.6369 18.2732C29.0858 6.95219 29.0858 6.95219 29.0858 6.95219C29.0858 6.95219 29.0858 6.95219 28.4653 26.1776Z" fill="#5AD880"/>
<path d="M105 54.5269C105 93.4481 81.495 125 52.5 125C23.5051 125 0 93.4481 0 54.5269C0 15.6057 23.5051 29.3577 52.5 29.3577C81.495 29.3577 105 15.6057 105 54.5269Z" fill="#F272AD"/>
<path d="M16 49.3706C16 54.1365 13.9853 58 11.5 58C9.01472 58 7 54.1365 7 49.3706C7 44.6048 9.01472 46.2887 11.5 46.2887C13.9853 46.2887 16 44.6048 16 49.3706Z" fill="#F9AFD1"/>
<path d="M35 49.3706C35 54.1365 32.9853 58 30.5 58C28.0147 58 26 54.1365 26 49.3706C26 44.6048 28.0147 46.2887 30.5 46.2887C32.9853 46.2887 35 44.6048 35 49.3706Z" fill="#F9AFD1"/>
<path d="M25 67.3706C25 72.1365 22.9853 76 20.5 76C18.0147 76 16 72.1365 16 67.3706C16 62.6048 18.0147 64.2887 20.5 64.2887C22.9853 64.2887 25 62.6048 25 67.3706Z" fill="#F9AFD1"/>
<path d="M34 87.3706C34 92.1365 31.9853 96 29.5 96C27.0147 96 25 92.1365 25 87.3706C25 82.6048 27.0147 84.2887 29.5 84.2887C31.9853 84.2887 34 82.6048 34 87.3706Z" fill="#F9AFD1"/>
<path d="M57 87.3706C57 92.1365 54.9853 96 52.5 96C50.0147 96 48 92.1365 48 87.3706C48 82.6048 50.0147 84.2887 52.5 84.2887C54.9853 84.2887 57 82.6048 57 87.3706Z" fill="#F9AFD1"/>
<path d="M44 104.371C44 109.137 41.9853 113 39.5 113C37.0147 113 35 109.137 35 104.371C35 99.6048 37.0147 101.289 39.5 101.289C41.9853 101.289 44 99.6048 44 104.371Z" fill="#F9AFD1"/>
<path d="M69 104.371C69 109.137 66.9853 113 64.5 113C62.0147 113 60 109.137 60 104.371C60 99.6048 62.0147 101.289 64.5 101.289C66.9853 101.289 69 99.6048 69 104.371Z" fill="#F9AFD1"/>
<path d="M80 87.3706C80 92.1365 77.9853 96 75.5 96C73.0147 96 71 92.1365 71 87.3706C71 82.6048 73.0147 84.2887 75.5 84.2887C77.9853 84.2887 80 82.6048 80 87.3706Z" fill="#F9AFD1"/>
<path d="M47 67.3706C47 72.1365 44.9853 76 42.5 76C40.0147 76 38 72.1365 38 67.3706C38 62.6048 40.0147 64.2887 42.5 64.2887C44.9853 64.2887 47 62.6048 47 67.3706Z" fill="#F9AFD1"/>
<path d="M69 67.3706C69 72.1365 66.9853 76 64.5 76C62.0147 76 60 72.1365 60 67.3706C60 62.6048 62.0147 64.2887 64.5 64.2887C66.9853 64.2887 69 62.6048 69 67.3706Z" fill="#F9AFD1"/>
<path d="M89 67.3706C89 72.1365 86.9853 76 84.5 76C82.0147 76 80 72.1365 80 67.3706C80 62.6048 82.0147 64.2887 84.5 64.2887C86.9853 64.2887 89 62.6048 89 67.3706Z" fill="#F9AFD1"/>
<path d="M57 49.3706C57 54.1365 54.9853 58 52.5 58C50.0147 58 48 54.1365 48 49.3706C48 44.6048 50.0147 46.2887 52.5 46.2887C54.9853 46.2887 57 44.6048 57 49.3706Z" fill="#F9AFD1"/>
<path d="M79 49.3706C79 54.1365 76.9853 58 74.5 58C72.0147 58 70 54.1365 70 49.3706C70 44.6048 72.0147 46.2887 74.5 46.2887C76.9853 46.2887 79 44.6048 79 49.3706Z" fill="#F9AFD1"/>
<path d="M98 49.3706C98 54.1365 95.9853 58 93.5 58C91.0147 58 89 54.1365 89 49.3706C89 44.6048 91.0147 46.2887 93.5 46.2887C95.9853 46.2887 98 44.6048 98 49.3706Z" fill="#F9AFD1"/>
</svg>
